<?xml version="1.0" encoding="utf-8"?>
<!-- Generator: Adobe Illustrator 23.1.1, SVG Export Plug-In . SVG Version: 6.00 Build 0)  -->
<svg version="1.1" xmlns="http://www.w3.org/2000/svg" xmlns:xlink="http://www.w3.org/1999/xlink" x="0px" y="0px"
	 viewBox="0 0 612 792" style="enable-background:new 0 0 612 792;" xml:space="preserve">
<style type="text/css">
	.st0{fill:none;stroke:#000000;stroke-miterlimit:10;}
	.st1{fill:url(#SVGID_1_);}
	.st2{fill:#A7A7A7;}
	.st3{fill:#CDCDCD;}
	.st4{fill:url(#SVGID_2_);}
	.st5{fill:#FFFFFF;}
	.st6{fill:#B8B8B8;}
	.st7{fill:url(#SVGID_3_);}
	.st8{fill:url(#SVGID_4_);}
	.st9{fill:url(#SVGID_5_);}
</style>
<g id="Layer_2">
	<path class="st0" d="M639.8,624.6c0,95.9,0,191.8,0,287.8c-192,0-384,0-576.1,0c0-24.3,0-48.5,0-72.8c0.6-0.4,1.3-0.3,2-0.3
		c7.6,0,15.3,0,22.9,0c2.3,0,1.7-0.3,3.4,1.4c13.1,13.1,26.2,26.2,39.3,39.2c0.4,0.4,0.8,0.8,1.3,1.3c0.4,0,0.9,0,1.3,0
		c20.9,0,41.8,0.1,62.7,0.1c40.8,0,81.6-0.1,122.3-0.1c2.3,0,1.6,0.3,3.3-1.4c7.9-7.8,15.7-15.7,23.6-23.6c1-1,2-2,3-3
		c1.4-1.3,0.8-1.1,2.8-1.1c8.5,0,16.9,0.1,25.4,0.1c18.4,0,36.7-0.1,55.1-0.1c4.7,0,9.3,0,14,0c0.8,0,1.5,0.2,2.1,0.9
		c2.2,2.2,4.4,4.4,6.6,6.7c0.2,0.2,0.4,0.5,0.7,0.8c-0.1,0.4-0.2,0.7-0.2,1c-0.2,1.7,1,3,2.6,3.1c1.6,0,2.9-1.3,2.8-2.9
		c-0.1-1.6-1.6-2.7-3.2-2.5c-0.3,0-0.7,0.1-1,0.2c-0.4-0.4-0.8-0.8-1.2-1.1c-2-2-4.1-4.1-6.1-6.1c-1.5-1.5-1-1.3-3.1-1.3
		c-21.1-0.1-42.2-0.2-63.3-0.3c-0.3,0-0.6,0-0.9,0c-0.2,0-0.5,0-0.6-0.4c0.5-0.7,1.2-1.4,1.9-2.1c4.7-4.7,9.4-9.4,14.1-14.1
		c0.6-0.6,1.1-0.8,1.9-0.8c4.7,0,9.5,0,14.2,0c0.3,0,0.7,0.1,1,0.1c0.3,0.4,0.5,0.8,0.8,1.1c1,1.1,2.6,1.1,3.7,0.1
		c1.2-1,1.2-2.8,0.1-3.9c-1.1-1.1-2.9-1.1-3.9,0.1c-0.3,0.4-0.6,0.8-0.9,1.2c-0.4,0-0.8,0-1.2,0c-4.4,0-8.8,0-13.2,0
		c-0.5,0-1.1,0-1.6,0c-0.5,0-0.9,0.1-1.2,0.5c-0.3,0.3-0.6,0.6-0.8,0.8c-4.4,4.4-8.9,8.9-13.3,13.3c-1,1-2,2-3.1,2.9
		c-1.6,1.5-1.2,1.3-3.2,1.3c-8.7,0.1-17.3,0.1-26,0.2c-0.9,0-1.6,0.3-2.2,0.9c-1.4,1.5-2.8,2.9-4.2,4.3c-7.5,7.5-14.9,15-22.4,22.4
		c-1.8,1.8-1.2,1.5-3.7,1.5c-36.2,0-72.4-0.1-108.5-0.1c-24.9,0-49.8,0.1-74.8,0.1c-2.1,0-1.6,0.2-3.2-1.3
		c-6.2-6.2-12.5-12.5-18.7-18.7c-0.2-0.2-0.5-0.5-0.7-0.7c-0.2-0.2-0.3-0.4,0-0.7c0.5,0,1.1,0,1.7,0c12.6,0,25.2,0,37.7,0
		c11.3,0,22.6,0,33.9,0c1.1,0,1.9,0.3,2.7,1.1c2.2,2.3,4.5,4.5,6.7,6.8c0.3,0.3,0.6,0.6,0.9,1c-0.1,0.5-0.1,0.9-0.1,1.3
		c-0.1,1.7,1.1,2.9,2.8,2.8c1.4-0.1,2.5-1.1,2.5-2.6c0-1.5-1-2.7-2.5-2.7c-0.5,0-1.1,0.1-1.7,0.1c-0.3-0.3-0.7-0.7-1.1-1
		c-2.1-2.1-4.2-4.2-6.3-6.3c-1.9-1.9-1.2-1.6-3.9-1.6c-24.2,0-48.4,0-72.6,0c-0.5,0-1,0-1.5,0c-0.8,0-1.5-0.1-2-0.8
		c-0.1-0.2-0.3-0.3-0.5-0.5c-5-5-10-10-15.1-15.1c-0.3-0.3-0.6-0.5-0.8-0.8c-0.1-0.1-0.1-0.3-0.2-0.6c0.7-0.2,1.2-0.2,1.8-0.2
		c13.7,0,27.3,0.1,41,0.1c18.2,0,36.4,0.1,54.6,0.1c1.2,0,2.4,0,3.7,0c0.7,0,1.2,0.2,1.7,0.7c1.2,1.2,2.5,2.4,3.7,3.6
		c7.2,7.2,14.4,14.4,21.6,21.6c2,2,1.2,1.7,4.1,1.7c17.4,0,34.9,0,52.3,0c0.7,0,1.4,0,2,0.1c0.2,0.3,0.4,0.6,0.6,0.9
		c0.6,0.8,1.4,1.2,2.4,1.1c1.4-0.1,2.4-1.2,2.4-2.6c0-1.4-1-2.6-2.4-2.7c-1.1-0.1-2,0.3-2.5,1.2c-0.4,0.7-1,0.9-1.7,0.9
		c-0.3,0-0.7,0-1,0c-4.7,0-9.4,0-14.1,0c-12.7,0-25.5,0-38.2,0c-1.9,0-1.7,0-2.9-1.2c-7.1-7.1-14.3-14.3-21.4-21.4
		c-0.9-0.9-1.8-1.8-2.7-2.7c-0.2-0.2-0.3-0.4-0.5-0.7c0.6-0.3,1.1-0.2,1.6-0.2c8.1,0,16.2-0.1,24.2-0.1c0.3,0,0.7,0,1,0
		c0.6,0,1,0.2,1.4,0.6c0.8,0.8,1.5,1.5,2.3,2.3c3.9,3.9,7.8,7.8,11.6,11.6c1.6,1.6,1,1.3,3.2,1.3c27.9,0,55.7,0,83.6,0
		c0.3,0,0.7,0,1,0c0.6,0,1.1-0.1,1.4-0.6c0.2-0.2,0.4-0.4,0.6-0.6c4.3-4.3,8.6-8.6,12.9-12.9c4.9-4.9,9.8-9.8,14.8-14.7
		c0.4-0.4,0.8-0.8,1.2-1.2c0.4,0.1,0.8,0.2,1.1,0.2c1.6,0.2,2.9-1,3.1-2.5c0.1-1.6-1.2-3-2.8-2.9c-1.5,0-2.7,1.4-2.6,2.9
		c0,0.4,0.1,0.8,0.2,1.2c-0.3,0.4-0.7,0.8-1.1,1.1c-9.2,9.2-18.4,18.4-27.6,27.6c-0.2,0.2-0.3,0.3-0.5,0.5c-0.3,0.3-0.6,0.4-0.9,0.4
		c-0.4,0-0.8,0-1.2,0c-5.2,0-10.5,0-15.7,0c-22.4,0-44.7,0-67.1,0c-1.9,0-1.5,0.2-2.8-1.1c-3.9-3.9-7.8-7.8-11.6-11.6
		c-0.3-0.3-0.6-0.6-0.9-0.9c-0.2-0.2-0.3-0.4-0.1-0.7c0.6-0.2,1.2-0.1,1.8-0.1c21.2,0,42.4,0,63.6,0c0.5,0,1,0,1.5,0
		c0.6,0,1-0.2,1.4-0.6c0.2-0.3,0.5-0.5,0.7-0.7c3.9-3.9,7.8-7.8,11.7-11.7c0.7-0.7,1.4-1.1,2.3-1c0.4,0,0.8,0,1.2,0
		c8.4,0,16.7,0,25.1,0c2.5,0,1.8,0.2,3.6-1.5c4.6-4.6,9.2-9.2,13.8-13.8c0.6-0.6,1.3-0.9,2.2-0.9c8.7,0,17.3,0,26,0
		c0.4,0,0.8,0.1,1.1,0.1c0.3,0.4,0.5,0.8,0.8,1.1c1.2,1.2,3.1,1.1,4.1-0.2c0.9-1.1,0.7-2.8-0.4-3.7c-1.1-1-2.7-0.9-3.7,0.2
		c-0.3,0.3-0.6,0.8-0.9,1.2c-0.6,0-1.2,0-1.8,0c-8.4,0-16.7,0-25.1,0c-0.4,0-0.8,0-1.2,0c-0.6,0-1,0.2-1.4,0.6
		c-0.3,0.3-0.6,0.6-0.8,0.8c-4.6,4.6-9.3,9.3-13.9,13.9c-0.7,0.7-1.4,1.1-2.3,1c-0.1,0-0.3,0-0.4,0c-7.9,0-15.8,0-23.6,0
		c-0.4,0-0.9,0-1.3,0c-0.2,0-0.3-0.1-0.5-0.2c0.3-0.6,0.8-1,1.2-1.4c9-9,17.9-17.9,26.9-26.9c1.8-1.8,1.1-1.6,3.8-1.6
		c22.4,0,44.7,0,67.1,0c0.4,0,0.8,0,1.2,0c0.4,0,0.8,0.1,1.1,0.1c0.3,0.4,0.6,0.8,0.9,1.1c0.9,1,2.4,1.1,3.5,0.3
		c1-0.7,1.4-2.1,0.9-3.3c-0.8-1.8-3.2-2.2-4.5-0.8c-0.3,0.4-0.6,0.8-0.9,1.2c-0.7,0-1.5,0-2.2,0c-22.7,0-45.3,0-68,0
		c-2.2,0-1.7-0.2-3.2,1.3c-14.2,14.2-28.5,28.5-42.7,42.7c-1.5,1.5-1,1.4-3.4,1.4c-20.8,0-41.6,0-62.4-0.1
		c-37.9-0.1-75.9-0.2-113.8,0c-0.9,0-1.8,0-2.6,0c-0.2,0-0.4-0.1-0.8-0.2c0.4-0.4,0.6-0.8,0.9-1.1c7.2-7.2,14.4-14.4,21.6-21.6
		c0.7-0.7,1.4-1.3,2-1.9c0.4-0.4,0.8-0.5,1.3-0.5c0.3,0,0.7,0,1,0c6.8,0,13.6,0.1,20.4,0.1c2.1,0,1.6-0.2,3.1,1.2
		c2.8,2.6,5.5,5.3,8.2,8c2,2,4,3.9,5.9,5.9c0.5,0.5,1,0.8,1.7,0.7c0.1,0,0.3,0,0.4,0c24.9,0,49.8,0.1,74.8,0.1
		c10.7,0,21.3-0.1,32-0.1c0.9,0,1.7-0.2,2.3-1c0.1-0.1,0.1-0.1,0.2-0.2c8.1-8.1,16.2-16.2,24.3-24.3c0.3-0.3,0.7-0.7,1.1-1
		c0.5,0.1,0.8,0.2,1.2,0.2c1.2,0.1,2.5-0.7,2.8-1.9c0.4-1.3-0.1-2.5-1.2-3.2c-1.7-1-3.9,0.2-4,2.2c0,0.6,0.1,1.2,0.1,1.8
		c-0.5,0.5-1,1.1-1.5,1.6c-7,7-13.9,13.9-20.9,20.9c-0.8,0.8-1.5,1.5-2.3,2.3c-1.5,1.4-1,1.2-3.1,1.2c-14.4,0-28.9-0.1-43.3-0.1
		c-20.4,0-40.8,0.1-61.2,0.2c-0.5,0-1,0-1.5,0c-0.4,0-0.8-0.1-1.1-0.4c-0.2-0.2-0.4-0.4-0.6-0.6c-3.5-3.5-6.9-6.9-10.4-10.4
		c-0.8-0.8-1.5-1.6-2.2-2.4c-0.1-0.2-0.2-0.4-0.3-0.7c0.6,0,1.1,0,1.6,0c4.7,0,9.5,0,14.2,0c19.8-0.1,39.7-0.1,59.5-0.2
		c7.3,0,14.6,0,21.9,0c0.9,0,1.6-0.3,2.2-0.9c2.2-2.3,4.5-4.5,6.7-6.8c1.4-1.4,1-1.2,2.9-1.2c4.9,0,9.8,0,14.7,0
		c0.7,0,1.3-0.1,1.8-0.7c0.2-0.2,0.4-0.4,0.6-0.6c4.2-4.2,8.4-8.4,12.6-12.6c0.7-0.7,1.4-1,2.5-1c6.5,0,12.9,0,19.4,0
		c0.5,0,1,0,1.4,0.1c0.3,0.4,0.6,0.9,0.9,1.2c0.8,0.9,2.2,1.1,3.2,0.5c1.1-0.6,1.6-1.8,1.3-3c-0.3-1.2-1.3-2-2.6-2
		c-1,0-1.8,0.4-2.3,1.2c-0.4,0.7-0.9,0.8-1.6,0.8c-0.4,0-0.8,0-1.2,0c-6.3,0-12.6,0-18.9,0c-2.1,0-1.6-0.1-3.1,1.3
		c-4.2,4.2-8.5,8.4-12.7,12.7c-0.6,0.6-1.2,0.9-2.1,0.9c-2.7,0-5.5,0-8.2,0c-1.7,0-3.3,0-5,0c-0.3,0-0.6,0.1-0.8-0.4
		c0.3-0.3,0.5-0.6,0.8-0.9c6.1-6.1,12.3-12.3,18.4-18.4c0.7-0.7,1.4-1.3,2.1-2c0.4-0.4,0.9-0.6,1.4-0.6c0.9,0,1.8,0,2.6,0
		c13,0,25.9,0.2,38.9,0.1c16.9,0,33.8-0.2,50.7-0.2c0.5,0,1,0,1.5,0c0.4,0,0.7,0.1,0.9,0.5c0.2,0.2,0.3,0.5,0.5,0.7
		c0.8,0.9,2.2,1.1,3.2,0.6c1-0.5,1.5-1.4,1.5-2.5c0-1.1-0.6-1.9-1.7-2.4c-1-0.4-2.2-0.2-3,0.6c-0.3,0.3-0.6,0.7-1,1.2
		c-0.7,0-1.4,0-2,0c-21.5-0.1-43-0.1-64.5-0.2c-9.3,0-18.5,0.1-27.8,0.1c-1,0-1.7,0.3-2.3,1c-1.2,1.3-2.4,2.6-3.7,3.8
		c-8.9,8.9-17.9,17.9-26.8,26.8c-1.2,1.2-0.8,1.2-2.8,1.2c-0.1,0-0.2,0-0.3,0c-9.9,0-19.9,0-29.8-0.1c-25.7,0-51.4-0.1-77.1-0.1
		c-5,0-10,0.1-15,0c-0.9,0-1.6,0.3-2.2,0.9c-1.2,1.3-2.4,2.6-3.7,3.8c-6.9,6.9-13.8,13.9-20.8,20.8c-1.5,1.5-1,1.4-3.3,1.4
		c-8.4,0-16.8,0-25.3,0c-5.9,0-11.8,0-17.8,0c-0.9,0-1.8-0.1-2.4-0.8c0-2.5,0-5.1,0-7.6c0.8-0.1,1.5-0.2,2.3-0.2
		c5.1,0,10.2,0,15.3,0c7.2,0,14.5,0,21.7,0c1.1,0,1.9-0.3,2.7-1.1c6.1-6.1,12.2-12.2,18.3-18.3c5.2-5.2,10.4-10.4,15.6-15.6
		c0.6-0.6,1.2-0.9,2.1-0.9c7.2,0,14.4,0,21.6,0c0.8,0,1.4,0.1,1.8,0.9c0.1,0.3,0.4,0.5,0.6,0.6c0.8,0.6,2.3,0.6,3.2,0
		c1-0.7,1.3-2,0.9-3.1c-0.8-2.1-3.7-2.2-4.6-0.6c-0.5,0.9-1.2,1.1-2.1,1c-0.4,0-0.8,0-1.2,0c-6.9,0-13.7,0-20.6,0
		c-0.9,0-1.7,0.2-2.3,0.9c-6.4,6.4-12.8,12.8-19.2,19.2c-4.9,4.9-9.7,9.8-14.6,14.7c-0.2,0.2-0.4,0.3-0.5,0.5
		c-0.4,0.4-0.9,0.6-1.4,0.6c-0.4,0-0.9,0-1.3,0c-11.3,0-22.6,0-33.9,0c-0.9,0-1.8,0-2.6,0c-0.6,0-1.1-0.1-1.6-0.3
		c0-5.4,0-10.8,0-16.2c0.9-0.1,1.8-0.2,2.6-0.2c11.3,0,22.5,0,33.8,0c2.2,0,1.8,0.1,3.3-1.4c8.4-8.4,16.8-16.8,25.2-25.2
		c0.7-0.7,1.4-1.4,2.1-2.1c0.5-0.5,1-0.7,1.7-0.7c0.4,0,0.8,0,1.2,0c3.6,0,7.1,0.1,10.7,0.1c11.9,0.1,23.9,0.1,35.8,0.1
		c0.1,0,0.3,0,0.4,0c0.7-0.1,1.2,0.2,1.7,0.6c1.2,1.1,2.4,2.2,3.5,3.3c2.4,2.4,4.8,4.8,7.2,7.2c0.6,0.6,1.3,0.9,2.2,0.9
		c2.3-0.1,4.7,0,7,0c1.1,0,1.9,0.4,2.7,1.1c2,2.1,4.1,4.1,6.1,6.1c1.7,1.7,1.1,1.4,3.4,1.4c11.9,0,23.8,0,35.7,0c0.6,0,1.3,0,1.8,0
		c0.4,0.5,0.6,0.9,1,1.2c0.8,0.8,2,1,3,0.5c1-0.5,1.6-1.5,1.5-2.6c-0.1-1.1-0.8-2.1-1.9-2.4c-1.1-0.3-2-0.1-2.8,0.8
		c-0.3,0.4-0.6,0.8-0.9,1.2c-0.6,0-1.1,0-1.6,0c-11.8,0-23.7,0-35.5,0c-0.3,0-0.7,0-1,0c-0.5,0-0.8-0.2-1.2-0.5c-2-2-4-4-6-6
		c-0.1-0.1-0.2-0.4-0.3-0.6c0.7-0.3,1.4-0.2,2-0.2c16.3,0,32.6,0,48.9,0c2.6,0,1.9,0.3,3.7-1.5c12.5-12.5,25-25,37.5-37.5
		c0.3-0.3,0.7-0.7,1-1c0.4-0.4,0.8-0.6,1.3-0.5c0.6,0,1.2,0,1.8,0c3.6,0,7.1,0,10.7,0c0.8,0,1.4,0.2,1.9,0.8
		c0.2,0.3,0.5,0.5,0.7,0.7c3.7,3.7,7.5,7.5,11.2,11.2c0.7,0.7,1.4,1.3,2,1.9c0.9,0,1.8,0.1,2.6,0.1c29.7,0,59.3,0,89,0
		c0.5,0,1.1,0,1.6,0c0.7-0.1,1.3,0.2,1.8,0.8c0.1,0.1,0.1,0.1,0.2,0.2c3.5,3.5,7,7,10.5,10.5c0.3,0.3,0.5,0.6,0.8,0.8
		c-0.1,0.5-0.2,1-0.2,1.5c0,1.1,0.7,2.1,1.7,2.5c1.1,0.4,2.4,0.1,3.1-0.8c0.7-0.9,0.9-1.9,0.4-2.9c-0.5-1-1.2-1.5-2.3-1.5
		c-0.5,0-1.1,0.1-1.7,0.1c-0.4-0.4-0.8-0.8-1.3-1.2c-3.4-3.4-6.7-6.7-10.1-10.1c-1.6-1.6-1.1-1.3-3.2-1.3c-14.6,0-29.3,0-43.9,0
		c-15.6,0-31.2,0-46.9,0c-2,0-1.6,0.2-2.9-1.2c-3.6-3.6-7.2-7.2-10.8-10.8c-0.2-0.2-0.4-0.4-0.6-0.6c-0.1-0.2-0.2-0.4-0.3-0.7
		c0.6,0,1.1,0,1.6,0c3.2,0,6.4,0,9.5,0c8.7,0,17.3,0,26,0c0.6,0,1.2,0,1.7,0.1c0.3,0.5,0.6,0.8,0.9,1.1c1.1,1.2,3.1,1.1,4.1-0.2
		c0.9-1.1,0.7-2.8-0.4-3.7c-1.1-1-2.7-0.9-3.7,0.2c-0.3,0.3-0.6,0.8-0.9,1.2c-0.6,0-1.3,0-1.9,0c-17.3,0-34.7,0-52,0
		c-2.5,0-1.8-0.3-3.6,1.5c-12.6,12.6-25.1,25.1-37.7,37.7c-1.7,1.7-1.1,1.5-3.7,1.5c-20,0-39.9,0-59.9,0c-0.2,0-0.5,0-0.7,0
		c-0.9,0.1-1.6-0.2-2.2-0.9c-2.4-2.5-4.8-4.9-7.2-7.3c-0.6-0.6-1.1-1.2-1.7-1.8c-0.1-0.2-0.2-0.4-0.4-0.7c0.6,0,1-0.1,1.4-0.1
		c18.5-0.1,37-0.2,55.5-0.2c2.4,0,1.8,0.2,3.4-1.4c13.1-13.1,26.2-26.2,39.4-39.3c2-2,1.2-1.7,3.9-1.6c18.4,0.1,36.8,0.2,55.2,0.2
		c22,0,44-0.1,65.9-0.2c10.2,0,20.4,0,30.5,0c0.6,0,1.3,0,1.8,0.1c0.3,0.4,0.6,0.8,0.9,1.1c0.8,0.8,1.7,1.1,2.8,0.7
		c1.1-0.4,1.8-1.4,1.9-2.6c0-1.1-0.6-2.1-1.7-2.5c-1.1-0.4-2.3-0.2-3.1,0.7c-0.3,0.3-0.5,0.7-0.8,1.1c-0.6,0-1.2,0-1.8,0
		c-31.6-0.1-63.3-0.1-94.9-0.2c-0.2,0-0.5,0-0.7,0c-0.2,0-0.4-0.1-0.8-0.1c0.2-0.3,0.3-0.5,0.5-0.7c3-3.1,6-6.1,9.1-9.2
		c0.3-0.3,0.6-0.4,1.1-0.4c0.3,0,0.6,0,0.9,0c19.3,0,38.7,0,58,0c0.5,0,1,0,1.4,0.1c0.3,0.4,0.6,0.8,0.9,1.1
		c0.7,0.8,1.6,1.1,2.7,0.8c1.2-0.3,1.9-1.3,2-2.4c0.1-1.2-0.5-2.2-1.6-2.7c-1.1-0.5-2.2-0.2-3.1,0.7c-0.3,0.3-0.5,0.7-0.8,1.1
		c-0.6,0-1.2,0-1.8,0c-7.2,0-14.5,0-21.7,0c-12.1,0-24.3,0-36.4,0c-1.1,0-1.8,0.3-2.6,1.1c-1.8,1.8-3.6,3.6-5.4,5.4
		c-1.5,1.5-3,2.9-4.5,4.4c-0.7,0.7-1.6,1-2.6,1c-17.5,0-35,0.1-52.4,0.2c-0.3,0-0.7,0-1,0c-0.4,0-0.8,0.1-1,0.4
		c-0.4,0.4-0.8,0.8-1.2,1.2c-6.6,6.6-13.3,13.3-19.9,20c-0.7,0.7-1.4,1.1-2.4,1.1c-9.3,0-18.6,0-27.9,0c-0.9,0-1.6-0.3-2.2-0.9
		c-2.9-3-5.9-5.9-8.8-8.8c-0.3-0.3-0.5-0.6-0.7-0.8c0.1-0.5,0.2-0.9,0.2-1.4c0-1.5-1.2-2.7-2.7-2.8c-1.5,0-2.7,1.2-2.7,2.7
		c0,1.5,1.3,2.8,2.8,2.7c0.4,0,0.9-0.1,1.3-0.2c0.4,0.4,0.8,0.7,1.2,1.1c2.9,2.9,5.7,5.7,8.6,8.6c1.3,1.3,0.9,1.1,2.8,1.1
		c8.5,0,17,0,25.6,0c0.5,0,1,0,1.5,0c0.2,0,0.3,0.1,0.5,0.2c-0.1,0.7-0.6,1-1,1.3c-5.1,5.2-10.3,10.3-15.5,15.5
		c-1.8,1.8-1.2,1.6-3.7,1.5c-16.8-0.1-33.7-0.2-50.5-0.2c-19,0-38,0.1-57,0.2c-2.5,0-1.8-0.3-3.6,1.5c-8.9,8.9-17.9,17.9-26.8,26.8
		c-1.3,1.3-1,1.1-2.8,1.1c-11.3,0-22.6,0-33.9,0c-0.3,0-0.6,0-0.9,0c-0.4-0.1-0.8-0.2-1.3-0.3c0-3.7,0-7.4,0-11.2
		c0.8,0,1.7-0.1,2.5-0.1c8.3,0,16.6,0,25,0c0.6,0,1.2,0,1.7,0c0.4-0.4,0.8-0.8,1.2-1.2c7.9-7.9,15.7-15.7,23.6-23.6
		c1.3-1.3,0.9-1.2,2.8-1.2c8.6,0,17.1,0,25.7,0c22.6,0,45.1,0,67.7,0c0.7,0,1.4,0,2,0c0.3,0.4,0.6,0.8,0.8,1.1
		c1,1.1,2.6,1.2,3.7,0.2c1.2-1,1.3-2.8,0.2-3.9c-1.1-1.2-3.1-1.2-4,0.2c-0.6,0.9-1.4,1.1-2.3,1.1c-0.4,0-0.9,0-1.3,0
		c-30.9,0-61.8,0-92.7,0c-2.5,0-1.7-0.3-3.5,1.5c-7.7,7.6-15.3,15.3-23,22.9c-1.7,1.7-1.1,1.4-3.4,1.4c-8.2,0-16.3,0-24.5,0
		c-0.7,0-1.5-0.1-2.2-0.1c0-3.6,0-7.2,0-10.9c0.8,0,1.7-0.1,2.5-0.1c6.6,0,13.1,0,19.7,0c0.6,0,1.2,0,1.8,0c0.8-0.8,1.5-1.5,2.3-2.3
		c6.3-6.3,12.7-12.7,19-19c0.7-0.7,1.4-1,2.4-1c2.2,0.1,4.4,0,6.6,0c15.7,0,31.3,0,47,0c0.6,0,1.3,0,1.9,0c0.3,0.4,0.5,0.8,0.8,1.1
		c0.8,0.9,2.1,1.2,3.2,0.6c1-0.5,1.5-1.4,1.5-2.5c0-1.1-0.7-2.1-1.8-2.4c-1.1-0.4-2-0.1-2.8,0.7c-0.3,0.3-0.5,0.7-0.9,1.1
		c-0.7,0-1.4,0.1-2.1,0.1c-17.7,0-35.3,0-53,0c-0.5,0-1.1,0-1.6,0c-0.5,0-0.9,0.2-1.3,0.6c-0.3,0.3-0.6,0.6-0.8,0.8
		c-6.5,6.5-12.9,12.9-19.4,19.4c-0.3,0.3-0.7,0.7-1.1,1c-0.3,0.2-0.6,0.3-0.9,0.4c-0.3,0.1-0.7,0-1,0c-6.6,0-13.2,0-19.8,0
		c-0.7,0-1.4-0.1-2-0.1c0-6.1,0-12.1,0-18.2c0.6-0.3,1.2-0.3,1.9-0.3c5.3,0,10.6,0,15.8,0c0.2,0,0.5,0,0.7,0c0.4,0,0.8,0.1,1,0.5
		c0.1,0.3,0.3,0.5,0.5,0.7c0.8,0.9,2.2,1.1,3.2,0.5c1-0.6,1.5-1.4,1.4-2.5c0-1-0.8-2.1-1.8-2.3c-1.1-0.3-2.1-0.2-2.9,0.8
		c-0.3,0.3-0.5,0.7-0.8,1.1c-0.5,0-1,0.1-1.5,0.1c-5.2,0-10.4,0-15.6,0c-0.7,0-1.4-0.2-2-0.2c0-1,0-2,0-2.9c0.3-0.2,0.5-0.4,0.8-0.7
		c2.6-2.6,5.2-5.2,7.8-7.8c0.6-0.6,1.3-1,2.2-0.9c0.2,0,0.5,0,0.7,0c6.9,0,13.8,0,20.7,0.1c29.2,0.2,58.5,0.2,87.7,0
		c2.2,0,1.7,0.1,3.2-1.3c4.5-4.5,9-9,13.5-13.5c0.4-0.4,0.8-0.7,1.2-1.1c0.4-0.4,0.9-0.6,1.4-0.6c0.2,0,0.5,0,0.7,0
		c16,0.2,31.9,0.1,47.9,0c0.4,0,0.9,0,1.3,0c0.3,0,0.6,0.1,0.8,0.3c0.5,0.3,2.8,2.8,3.3,3.4c0,0.4-0.1,0.8-0.1,1.3
		c0,0.7,0.1,1.3,0.5,1.8c0.8,1,2.2,1.3,3.3,0.7c1.1-0.5,1.7-1.8,1.4-3.1c-0.3-1.2-1.3-2-2.6-2c-0.5,0-1,0.1-1.5,0.1
		c-0.3-0.2-0.6-0.5-0.8-0.7c-0.8-0.8-1.6-1.5-2.3-2.3c-0.6-0.7-1.3-0.9-2.2-0.9c-14,0-28-0.3-42,0c-2,0-3.9,0-5.9,0
		c-0.3,0-0.6,0.1-0.8-0.3c0.1-0.1,0.2-0.3,0.3-0.4c2.6-2.7,5.3-5.4,7.9-8c0.6,0.1,1.1,0.1,1.6,0.1c0.9,0,1.6-0.3,2.2-1
		c0.7-1,0.7-2.2,0.1-3.2c-0.7-1-1.9-1.4-3.1-1c-1.1,0.3-1.8,1.4-1.8,2.6c0,0.5,0.1,1,0.2,1.5c-0.4,0.4-0.8,0.9-1.2,1.3
		c-5.4,5.4-10.9,10.9-16.3,16.3c-2.5,2.5-5,5-7.5,7.5c-1.4,1.3-1,1.2-3.1,1.2c-9.5,0-19-0.1-28.5-0.2c-3.8,0-7.5,0-11.3,0
		c-0.4,0-0.8,0.1-1.2-0.2c0.5-0.7,1.1-1.3,1.6-1.9c2.9-2.9,5.7-5.8,8.6-8.6c0.1-0.1,0.3-0.3,0.4-0.4c0.3-0.2,0.6-0.3,0.9-0.4
		c0.3-0.1,0.6,0,0.9,0c4.8,0,9.7,0,14.5,0c0.5,0,1,0,1.4,0.1c0.3,0.4,0.5,0.8,0.8,1.1c0.7,0.7,1.5,1.1,2.5,0.8
		c1.2-0.3,2-1.2,2.1-2.4c0.1-1.3-0.5-2.3-1.7-2.8c-1.1-0.4-2.2-0.1-3,0.8c-0.3,0.3-0.5,0.7-0.8,1.1c-6,0-11.9,0-17.8,0
		c-0.5,0.5-0.9,0.9-1.3,1.3c-2.8,2.8-5.6,5.6-8.4,8.4c-0.9,0.9-1.9,1.8-2.9,2.7c-0.4,0.4-0.8,0.5-1.3,0.5c-0.3,0-0.7,0-1,0
		c-8.6,0-17.1,0.1-25.7,0.1c-0.8,0-1.7,0-2.5,0c-0.2,0-0.4-0.1-0.8-0.2c0.7-0.8,1.3-1.5,2-2.1c8.9-8.9,17.7-17.7,26.6-26.6
		c0.7-0.7,1.4-1.1,2.3-1c0.3,0,0.7,0,1,0c17,0,34,0,51,0c0.6,0,1.3,0,1.9,0c0.5-0.4,0.9-0.9,1.4-1.3c5.6-5.6,11.2-11.2,16.8-16.8
		c0.7-0.7,1.4-1,2.3-0.9c3.9,0.1,7.8,0,11.7,0.1c1.7,0,3.4,0,5.1,0c0.6,0,1.1,0.2,1.6,0.6c1.1,1.1,2.2,2.1,3.3,3.2
		c4,3.9,7.9,7.9,11.8,11.8c1.7,1.7,1.1,1.5,3.6,1.5c7.5,0,15,0,22.5,0c2.1,0,1.8,0,3.1,1.3c2.4,2.3,4.7,4.7,7.1,7.1
		c0.6,0.6,1.2,1,2.1,0.9c0.4,0,0.8,0,1.2,0c10,0,20.1,0,30.1,0c0.6,0,1.3,0,1.9,0c0.3,0.4,0.6,0.8,0.9,1.1c0.7,0.7,1.5,1.1,2.5,0.8
		c1.2-0.3,2.1-1.3,2.2-2.5c0.1-1.1-0.6-2.2-1.7-2.7c-1.1-0.5-2.3-0.2-3.2,0.8c-0.2,0.3-0.5,0.6-0.7,1c-0.6,0-1.3,0-1.9,0
		c-10,0-20,0-30,0c-0.3,0-0.7,0-1,0c-0.6,0-1.1-0.2-1.6-0.7c-2.1-2.1-4.2-4.2-6.2-6.2c-0.2-0.2-0.3-0.4-0.6-0.8
		c0.7-0.3,1.3-0.2,2-0.2c9.9,0,19.8,0,29.7,0c6.2,0,12.3,0,18.5,0c0.7,0,1.4,0.1,2,0.1c0.3,0.4,0.5,0.7,0.8,1c1,1.2,2.8,1.3,3.9,0.2
		c1.1-1.1,1.1-2.8,0-3.9c-1.1-1.1-2.9-1-3.9,0.2c-0.3,0.3-0.5,0.7-0.8,1.1c-0.6,0-1.3,0-1.9,0c-25.4,0-50.7,0-76.1,0
		c-0.4,0-0.9,0-1.3,0c-0.5,0-1-0.2-1.3-0.5c-0.2-0.2-0.4-0.4-0.6-0.6c-3.8-3.8-7.6-7.5-11.3-11.3c-0.9-0.9-1.7-1.8-2.5-2.7
		c-0.2-0.2-0.3-0.4-0.1-0.7c0.5,0,1,0,1.6,0c7.1,0,14.2,0.1,21.3,0.1c31.3,0,62.6-0.1,93.8-0.2c4.5,0,8.9,0,13.4,0
		c0.5,0,1.1-0.1,1.6,0.1c0.3,0.4,0.5,0.7,0.8,1.1c0.8,0.8,1.9,1.1,3,0.6c1.1-0.5,1.7-1.4,1.7-2.5c0-1.2-0.6-2.1-1.7-2.5
		c-1-0.4-2.2-0.2-3,0.7c-0.3,0.3-0.5,0.7-0.9,1.1c-0.6,0-1.2,0-1.8,0c-10.7,0-21.4,0-32.2,0c-39.3,0-78.6-0.4-117.9,0
		c-0.5,0-1,0-1.5,0c-0.5,0-0.9,0.1-1.2,0.5c-0.2,0.2-0.4,0.4-0.6,0.6c-5.5,5.5-11,11-16.5,16.5c-1.8,1.8-1.1,1.5-3.6,1.5
		c-17,0-34.1,0-51.1,0c-0.4,0-0.9,0-1.3,0c-0.6,0-1,0.2-1.4,0.6c-0.2,0.3-0.5,0.5-0.7,0.7c-4.7,4.7-9.4,9.4-14.1,14.1
		c-0.3,0.3-0.6,0.5-0.8,0.8c-0.4,0.4-0.9,0.6-1.4,0.6c-0.8,0-1.7,0-2.5,0c-4.2,0-8.4,0-12.6,0c-0.9,0-1.7-0.2-2.3-1
		c-1.3-1.4-2.8-2.8-4.1-4.2c-0.3-0.3-0.6-0.6-0.9-1c0.1-0.4,0.2-0.8,0.2-1.2c0.1-1.1-0.6-2.3-1.6-2.7c-1.1-0.5-2.5-0.1-3.2,0.8
		c-0.7,0.8-0.8,1.8-0.3,2.8c0.4,1,1.2,1.5,2.3,1.5c0.6,0,1.2-0.1,2-0.1c0.2,0.3,0.5,0.7,0.9,1.1c1.3,1.3,2.5,2.6,3.8,3.8
		c1.6,1.6,1,1.3,3.3,1.3c1.9,0,3.8,0,5.7,0c2.4,0,4.9,0,7.3,0c0.4,0,0.8-0.1,1.2,0.3c-0.2,0.3-0.4,0.6-0.6,0.8
		c-3.7,3.7-7.4,7.3-11,11c-0.7,0.8-1.5,1.2-2.6,1.1c-0.3,0-0.6,0-0.9,0c-9.7,0-19.5,0.1-29.2,0.1c-0.4,0-0.9,0-1.3,0
		c-0.5,0-0.9,0.2-1.3,0.5c-0.5,0.5-1,1-1.6,1.6c-1.8,1.8-3.6,3.6-5.4,5.4c-0.4,0.4-0.8,0.7-1.4,0.7c0-6.4,0-12.7,0-19.1
		c0.7-0.1,1.3-0.2,2-0.2c2,0,3.9,0,5.9,0c0.5,0,1.1,0.1,1.6,0.1c0.2,0.4,0.4,0.6,0.6,0.9c0.6,0.8,1.4,1.1,2.3,1
		c1.5-0.1,2.5-1.2,2.6-2.7c0-1.3-1.1-2.6-2.6-2.6c-1,0-1.8,0.4-2.3,1.2c-0.4,0.6-0.8,0.8-1.5,0.8c-2.3,0-4.7,0-7,0
		c-0.5,0-0.9-0.2-1.4-0.3c0-4.4,0-8.8,0-13.2c0.8-0.1,1.6-0.2,2.3-0.2c4.6,0,9.1,0,13.7,0c0.4,0,0.9,0,1.3,0c0.5,0,0.9-0.2,1.2-0.5
		c0.3-0.3,0.6-0.6,0.9-0.9c4.2-4.2,8.4-8.4,12.7-12.7c1.6-1.6,1.1-1.4,3.3-1.4c17.2,0,34.5,0,51.7,0c0.4,0,0.9,0,1.3,0
		c0.6,0.1,1.1-0.2,1.6-0.7c0.2-0.3,0.5-0.5,0.7-0.7c3-3,6-6,9-9c1.5-1.4,1.1-1.3,3.1-1.3c9.4,0,18.7,0,28.1,0c0.4,0,0.9,0,1.3,0
		c0.5,0,0.9-0.2,1.3-0.5c0.7-0.7,1.4-1.5,2.2-2.2c0.3-0.3,0.6-0.5,0.8-0.7c0.6,0.1,1.1,0.1,1.6,0.1c0.8,0,1.4-0.3,1.9-0.9
		c0.8-0.9,0.9-2.3,0.2-3.3c-0.6-0.9-1.8-1.5-3.1-1c-1.1,0.4-1.9,1.5-1.8,2.7c0,0.4,0.1,0.9,0.2,1.3c-0.6,0.6-1.1,1.1-1.6,1.7
		c-1.6,1.6-1,1.5-3.6,1.5c-2.6,0-5.3,0-7.9,0c-1.7,0-3.3,0-5,0c-0.5,0-1,0.1-1.4-0.3c0.1-0.5,0.5-0.8,0.9-1.1
		c6.7-6.8,13.5-13.5,20.2-20.3c0.6-0.6,1.3-0.9,2.2-0.9c4.6,0,9.1,0,13.7,0c0.8,0,1.5,0.2,2.1,0.8c0.2,0.3,0.5,0.5,0.7,0.7
		c3.7,3.7,7.4,7.4,11.1,11.1c1.4,1.4,1,1.2,2.9,1.2c7.7,0,15.5,0,23.2,0.1c0.6,0,1.3,0,1.9,0.1c0.2,0.3,0.4,0.6,0.6,0.9
		c0.7,1,1.7,1.2,2.9,1c1.5-0.3,2.4-1.9,2-3.4c-0.5-1.7-2.9-2.9-4.6-1.2c-0.3,0.3-0.6,0.7-1,1.2c-0.6,0-1.1,0-1.7,0
		c-6.2,0-12.4,0-18.7,0c-1.5,0-3,0-4.6,0c-1,0-1.6-0.3-2.3-1c-3.4-3.4-6.8-6.8-10.2-10.2c-0.2-0.2-0.4-0.4-0.6-0.6
		c-0.1-0.2-0.2-0.4-0.3-0.7c0.6,0,1-0.1,1.4-0.1c3.4,0,6.9,0,10.3,0c9.9,0,19.8,0,29.7,0c1,0,1.7,0.3,2.3,1c4,4.1,8,8.2,12,12.3
		c0.2,0.2,0.4,0.4,0.6,0.6c0.4,0.4,0.8,0.6,1.4,0.6c0.2,0,0.5,0,0.7,0c9,0,18,0.1,27,0.1c23.9-0.1,47.9-0.2,71.8-0.3
		c0.6,0,1.2,0,1.8,0c0.8,0,1.5,0.3,2.1,0.9c1.9,1.9,3.8,3.8,5.7,5.7c0.2,0.2,0.4,0.5,0.6,0.8c-0.1,0.4-0.2,0.8-0.2,1.2
		c-0.1,1.5,1.1,2.9,2.6,3c1.5,0.1,2.8-1.1,2.8-2.6c0.1-1.6-1.1-2.8-2.7-2.8c-0.5,0-1,0.1-1.5,0.2c-0.3-0.3-0.7-0.6-1.1-1
		c-1.7-1.7-3.4-3.4-5.1-5.1c-1.7-1.7-1.1-1.5-3.6-1.5c-16.9-0.1-33.9-0.1-50.8-0.2c-7.8,0-15.7-0.1-23.5-0.1c-0.4,0-0.9,0.1-1.4-0.2
		c0.2-0.3,0.3-0.5,0.4-0.6c0.5-0.6,1.1-1.3,1.7-1.8c2-2,3.9-4,5.9-5.9c3.9-3.9,7.8-7.7,11.6-11.6c0.7-0.7,1.4-1,2.5-1
		c3.9,0.1,7.8,0.1,11.7,0.1c10.6,0.1,21.1,0.2,31.7,0.2c16.7,0,33.4-0.2,50.1-0.3c2.2,0,1.8,0.1,3.2-1.3c4.4-4.4,8.9-8.9,13.3-13.3
		c0.4-0.4,0.7-0.8,1.2-1c0.4,0.1,0.8,0.2,1.2,0.2c1.6,0.1,2.9-1.1,2.9-2.7c0-1.5-1.2-2.8-2.8-2.8c-1.5,0-2.7,1.3-2.7,2.9
		c0,0.4,0.1,0.9,0.2,1.3c-0.3,0.3-0.6,0.7-0.9,1c-4.4,4.4-8.8,8.8-13.2,13.2c-0.2,0.2-0.4,0.3-0.5,0.5c-0.4,0.5-0.9,0.7-1.6,0.7
		c-0.4,0-0.8,0-1.2,0c-6.5,0-12.9-0.1-19.4-0.1c-24.6-0.2-49.3-0.2-73.9,0.1c-1.1,0-1.9,0.2-2.6,1.1c0,0-0.1,0.1-0.1,0.1
		c-5.8,5.8-11.6,11.7-17.4,17.5c-1,1-2.2,2-3.2,3c-0.7,0.7-1.5,1-2.5,1c-6.6,0-13.2,0.1-19.8,0.1c-0.3,0-0.6,0-0.9,0
		c-0.5,0-0.8-0.1-1.2-0.5c-1-1-2-1.9-3-2.8c-3.2-3.2-6.4-6.4-9.6-9.5c-0.2-0.2-0.5-0.5-0.7-0.7c-0.4-0.4-0.8-0.6-1.3-0.5
		c-0.2,0-0.5,0-0.7,0c-19.7,0-39.5,0-59.2,0c-1.8,0-1.4-0.2-2.8,1.2c-7,7-14.1,14.1-21.1,21.1c-0.3,0.3-0.6,0.6-0.9,0.9
		c-0.5,0.5-1,0.7-1.7,0.7c-0.5,0-1,0-1.5,0c-3.1,0-6.2,0-9.3,0c-1,0-1.7,0.3-2.5,1c-3.1,3.1-6.2,6.2-9.3,9.4c-1.4,1.4-1,1.3-3.1,1.3
		c-16.6,0-33.2,0-49.8,0c-0.4,0-0.9,0-1.3,0c-0.2,0-0.4-0.2-0.7-0.3c0.4-0.4,0.7-0.8,1-1.1c6.7-6.8,13.5-13.5,20.2-20.3
		c0.6-0.6,1.2-1,2.1-0.9c0.3,0,0.6,0,0.9,0c9,0,18,0,27,0c5.9,0,11.7,0,17.6,0c0.6,0,1.2-0.1,1.7,0.1c0.2,0.3,0.5,0.7,0.7,1
		c0.5,0.6,1.2,1,2.1,1c1.2,0,2.2-0.8,2.6-2c0.3-1.1-0.2-2.4-1.3-3c-1-0.6-2.4-0.5-3.2,0.4c-0.3,0.3-0.6,0.8-1,1.2
		c-0.6,0-1.2,0-1.8,0c-15,0-30.1,0-45.1,0c-2.2,0-1.6-0.3-3.3,1.4c-12.2,12.1-24.3,24.3-36.5,36.4c-0.2,0.2-0.5,0.5-0.7,0.7
		c-0.5,0.6-1.1,0.8-1.8,0.8c-4.9,0-9.9,0-14.8,0c-0.6,0-1.1-0.1-1.6-0.3c0-33.1,0-66.2,0-99.3c0.2-0.1,0.4-0.2,0.6-0.3
		c100.5,0,200.9,0,301.4,0c0.6,0.1,1.3,0.2,1.9,0.2c15.4,0,30.7,0,46.1,0c70.6,0,141.1,0.1,211.7,0.1
		C630.2,624.6,635,624.6,639.8,624.6z M603.4,804.6c-0.2-0.1-0.3-0.2-0.4-0.2c-0.1,0-0.2,0.2-0.2,0.3c0,0.1,0.2,0.2,0.3,0.2
		C603.2,804.9,603.3,804.8,603.4,804.6z"/>
	<linearGradient id="SVGID_1_" gradientUnits="userSpaceOnUse" x1="133.0723" y1="37.6205" x2="136.8911" y2="401.1735">
		<stop  offset="0.1047" style="stop-color:#8CD5F0"/>
		<stop  offset="0.2659" style="stop-color:#629BE5"/>
		<stop  offset="0.4209" style="stop-color:#3F6BDD"/>
		<stop  offset="0.5669" style="stop-color:#2346D6"/>
		<stop  offset="0.7019" style="stop-color:#102BD1"/>
		<stop  offset="0.8217" style="stop-color:#041BCE"/>
		<stop  offset="0.914" style="stop-color:#0015CD"/>
	</linearGradient>
	<path class="st1" d="M127.7,27.5c-0.7,0.6-0.8,1.5-0.8,2.4c0,5.9,0,11.8,0,17.8c0,8.4,0,16.8,0,25.3c0,2.4-0.1,1.9,1.4,3.3
		c6.9,6.9,13.8,13.9,20.8,20.8c1.2,1.2,2.5,2.5,3.8,3.7c0.7,0.6,0.9,1.3,0.9,2.2c0,5,0,10,0,15c0,25.7-0.1,51.4-0.1,77.1
		c0,9.9,0,19.9-0.1,29.8c0,0.1,0,0.2,0,0.3c0,2,0,1.6,1.2,2.8c8.9,8.9,17.9,17.9,26.8,26.8c1.2,1.2,2.5,2.5,3.8,3.7
		c0.7,0.6,1,1.3,1,2.3c0,9.3,0.1,18.5,0.1,27.8c0,21.5-0.1,43-0.2,64.5c0,0.7,0,1.4,0,2c0.4,0.3,0.8,0.6,1.2,1
		c0.8,0.8,1.1,1.9,0.6,3c-0.4,1-1.3,1.6-2.4,1.7c-1.1,0-2-0.5-2.5-1.5c-0.6-1.1-0.3-2.4,0.6-3.2c0.2-0.2,0.5-0.4,0.7-0.5
		c0.3-0.2,0.5-0.5,0.5-0.9c0-0.5,0-1,0-1.5c-0.1-16.9-0.2-33.8-0.2-50.7c0-13,0.1-25.9,0.1-38.9c0-0.9,0-1.8,0-2.6
		c0-0.6-0.2-1-0.6-1.4c-0.7-0.7-1.3-1.4-2-2.1c-6.1-6.1-12.2-12.3-18.4-18.4c-0.3-0.3-0.6-0.6-0.9-0.8c-0.5,0.2-0.4,0.5-0.4,0.8
		c0,1.7,0,3.3,0,5c0,2.7,0,5.5,0,8.2c0,0.9,0.3,1.5,0.9,2.1c4.2,4.2,8.5,8.4,12.7,12.7c1.4,1.4,1.3,1,1.3,3.1c0,6.3,0,12.6,0,18.9
		c0,0.4,0,0.8,0,1.2c0,0.7,0.1,1.2,0.8,1.6c0.9,0.5,1.3,1.3,1.2,2.3c0,1.3-0.8,2.2-2,2.6c-1.2,0.3-2.4-0.2-3-1.3
		c-0.6-1-0.4-2.4,0.5-3.2c0.4-0.3,0.8-0.6,1.2-0.9c0-0.5,0.1-1,0.1-1.4c0-6.5,0-12.9,0-19.4c0-1-0.3-1.7-1-2.5
		c-4.2-4.2-8.4-8.4-12.6-12.6c-0.2-0.2-0.4-0.4-0.6-0.6c-0.6-0.5-0.7-1.1-0.7-1.8c0-4.9,0-9.8,0-14.7c0-2,0.2-1.5-1.2-2.9
		c-2.2-2.3-4.5-4.5-6.8-6.7c-0.7-0.6-0.9-1.3-0.9-2.2c0-7.3,0-14.6,0-21.9c-0.1-19.8-0.1-39.7-0.2-59.5c0-4.7,0-9.5,0-14.2
		c0-0.5,0-1,0-1.6c-0.3,0.1-0.5,0.2-0.7,0.3c-0.8,0.7-1.6,1.4-2.4,2.2c-3.5,3.5-6.9,6.9-10.4,10.4c-0.2,0.2-0.4,0.4-0.6,0.6
		c-0.3,0.3-0.4,0.6-0.4,1.1c0,0.5,0,1,0,1.5c0.1,20.4,0.1,40.8,0.2,61.2c0,14.4-0.1,28.9-0.1,43.3c0,2.1-0.2,1.6,1.2,3.1
		c0.7,0.8,1.5,1.5,2.3,2.3c7,7,13.9,13.9,20.9,20.9c0.5,0.5,1.1,1,1.6,1.5c0.6,0,1.2-0.1,1.8-0.1c2,0.1,3.1,2.2,2.2,4
		c-0.6,1.1-1.9,1.6-3.2,1.2c-1.2-0.3-2-1.6-1.9-2.8c0-0.4,0.1-0.8,0.2-1.2c-0.3-0.4-0.6-0.7-1-1.1c-8.1-8.1-16.2-16.2-24.3-24.3
		c-0.1-0.1-0.1-0.1-0.2-0.2c-0.8-0.6-1-1.4-1-2.3c0-10.7-0.1-21.3-0.1-32c0-24.9,0.1-49.8,0.1-74.8c0-0.1,0-0.3,0-0.4
		c-0.1-0.7,0.2-1.2,0.7-1.7c2-2,4-3.9,5.9-5.9c2.7-2.7,5.4-5.4,8-8.2c1.4-1.5,1.2-1,1.2-3.1c0-6.8,0.1-13.6,0.1-20.4
		c0-0.3,0-0.7,0-1c0-0.5-0.2-0.9-0.5-1.3c-0.7-0.7-1.3-1.4-1.9-2c-7.2-7.2-14.4-14.4-21.6-21.6c-0.3-0.3-0.6-0.6-1.1-0.9
		c-0.1,0.3-0.2,0.6-0.2,0.8c0,0.9,0,1.8,0,2.6c0.2,37.9,0.1,75.9,0,113.8c-0.1,20.8,0,41.6-0.1,62.4c0,2.5-0.1,1.9,1.4,3.4
		c14.2,14.2,28.4,28.5,42.7,42.7c1.5,1.5,1.3,1,1.3,3.2c0,22.7,0,45.3,0,68c0,0.7,0,1.5,0,2.2c0.4,0.3,0.8,0.6,1.2,0.9
		c1.5,1.3,1,3.7-0.8,4.5c-1.2,0.5-2.5,0.1-3.3-0.9c-0.8-1.1-0.6-2.6,0.3-3.5c0.3-0.3,0.7-0.5,1.1-0.9c0-0.3,0.1-0.7,0.1-1.1
		c0-0.4,0-0.8,0-1.2c0-22.4,0-44.7,0-67.1c0-2.7,0.2-2.1-1.6-3.8c-9-9-17.9-17.9-26.9-26.9c-0.4-0.4-0.8-0.9-1.4-1.2
		c-0.1,0.2-0.2,0.4-0.2,0.5c0,0.4,0,0.9,0,1.3c0,7.9,0,15.8,0,23.6c0,0.1,0,0.3,0,0.4c-0.1,1,0.3,1.7,1,2.3
		c4.7,4.6,9.3,9.3,13.9,13.9c0.3,0.3,0.5,0.6,0.8,0.8c0.4,0.4,0.6,0.8,0.6,1.4c0,0.4,0,0.8,0,1.2c0,8.4,0,16.7,0,25.1
		c0,0.6,0,1.2,0,1.8c0.4,0.3,0.8,0.6,1.2,0.9c1.1,1,1.1,2.6,0.2,3.7c-0.9,1.1-2.6,1.2-3.7,0.4c-1.3-1-1.4-3-0.2-4.1
		c0.3-0.3,0.7-0.5,1.1-0.8c0-0.4,0.1-0.8,0.1-1.1c0-8.7,0-17.3,0-26c0-0.9-0.3-1.6-0.9-2.2c-4.6-4.6-9.2-9.2-13.8-13.8
		c-1.7-1.7-1.5-1.1-1.5-3.6c0-8.4,0-16.7,0-25.1c0-0.4,0-0.8,0-1.2c0.1-1-0.3-1.7-1-2.3c-3.9-3.9-7.8-7.8-11.7-11.7
		c-0.2-0.2-0.5-0.5-0.7-0.7c-0.4-0.4-0.6-0.8-0.6-1.4c0-0.5,0-1,0-1.5c0-21.2,0-42.4,0-63.6c0-0.6,0.1-1.3-0.1-1.8
		c-0.3-0.2-0.5-0.1-0.7,0.1c-0.3,0.3-0.6,0.6-0.9,0.9c-3.9,3.9-7.8,7.7-11.6,11.6c-1.3,1.3-1.1,1-1.1,2.8c0,22.4,0,44.7,0,67.1
		c0,5.2,0,10.5,0,15.7c0,0.4,0,0.8,0,1.2c0,0.4,0.1,0.7,0.4,0.9c0.2,0.2,0.3,0.3,0.5,0.5c9.2,9.2,18.4,18.4,27.6,27.6
		c0.4,0.4,0.8,0.7,1.1,1.1c0.5-0.1,0.8-0.2,1.2-0.2c1.6-0.1,2.9,1.1,2.9,2.6c0,1.6-1.3,2.9-2.9,2.8c-1.5-0.1-2.7-1.5-2.5-3.1
		c0-0.3,0.1-0.7,0.2-1.1c-0.4-0.4-0.8-0.8-1.2-1.2c-4.9-4.9-9.8-9.8-14.7-14.8c-4.3-4.3-8.6-8.6-12.9-12.9c-0.2-0.2-0.4-0.4-0.6-0.6
		c-0.5-0.4-0.6-0.9-0.6-1.4c0-0.3,0-0.7,0-1c0-27.9,0-55.7,0-83.6c0-2.1-0.2-1.6,1.3-3.2c3.9-3.9,7.8-7.8,11.6-11.6
		c0.8-0.8,1.5-1.5,2.3-2.3c0.4-0.4,0.6-0.9,0.6-1.4c0-0.3,0-0.7,0-1c0-8.1-0.1-16.2-0.1-24.2c0-0.5,0.1-1.1-0.2-1.6
		c-0.3,0.2-0.5,0.4-0.7,0.5c-0.9,0.9-1.8,1.8-2.7,2.7c-7.1,7.1-14.3,14.3-21.4,21.4c-1.3,1.3-1.2,1.1-1.2,2.9c0,12.7,0,25.5,0,38.2
		c0,4.7,0,9.4,0,14.1c0,0.3,0,0.7,0,1c0,0.7,0.2,1.3,0.9,1.7c0.9,0.5,1.3,1.4,1.2,2.5c-0.1,1.4-1.2,2.4-2.7,2.4
		c-1.5,0-2.5-1-2.6-2.4c-0.1-1,0.3-1.8,1.1-2.4c0.3-0.2,0.5-0.4,0.9-0.6c0-0.7,0.1-1.3,0.1-2c0-17.4,0-34.9,0-52.3
		c0-2.9-0.3-2,1.7-4.1c7.2-7.2,14.4-14.4,21.6-21.6c1.2-1.2,2.4-2.5,3.6-3.7c0.5-0.5,0.7-1,0.7-1.7c0-1.2,0-2.4,0-3.7
		c0-18.2,0.1-36.4,0.1-54.6c0-13.7,0.1-27.3,0.1-41c0-0.6,0.1-1.2-0.2-1.8c-0.2,0.1-0.4,0.1-0.6,0.2c-0.3,0.3-0.6,0.5-0.8,0.8
		c-5,5-10,10-15.1,15.1c-0.2,0.2-0.3,0.4-0.5,0.5c-0.7,0.5-0.8,1.2-0.8,2c0,0.5,0,1,0,1.5c0,24.2,0,48.4,0,72.6c0,2.8,0.3,2-1.6,3.9
		c-2.1,2.1-4.2,4.2-6.3,6.3c-0.4,0.4-0.7,0.8-1,1.1c0.1,0.6,0.2,1.2,0.1,1.7c0,1.5-1.2,2.5-2.7,2.5c-1.4,0-2.5-1-2.6-2.5
		c-0.1-1.7,1.1-2.9,2.8-2.8c0.4,0,0.9,0.1,1.3,0.1c0.3-0.3,0.7-0.6,1-0.9c2.3-2.2,4.5-4.5,6.8-6.7c0.8-0.8,1.1-1.6,1.1-2.7
		c0-11.3,0-22.6,0-33.9c0-12.6,0-25.2,0-37.7c0-0.6,0-1.2,0-1.7c-0.4-0.3-0.6-0.1-0.7,0c-0.2,0.2-0.5,0.5-0.7,0.7
		c-6.2,6.2-12.5,12.5-18.7,18.7c-1.6,1.6-1.3,1.1-1.3,3.2c0,24.9,0.1,49.8,0.1,74.8c0,36.2-0.1,72.4-0.1,108.5
		c0,2.5-0.3,1.9,1.5,3.7c7.5,7.5,14.9,15,22.4,22.4c1.4,1.4,2.9,2.8,4.3,4.2c0.7,0.6,0.9,1.3,0.9,2.2c0,8.7,0.1,17.3,0.2,26
		c0,2.1-0.2,1.6,1.3,3.2c1,1.1,1.9,2.1,2.9,3.1c4.4,4.4,8.9,8.9,13.3,13.3c0.3,0.3,0.5,0.6,0.8,0.8c0.3,0.3,0.5,0.7,0.5,1.2
		c0,0.5,0,1.1,0,1.6c0,4.4,0,8.8,0,13.2c0,0.4,0,0.8,0,1.2c0.4,0.3,0.8,0.6,1.2,0.9c1.2,1.1,1.2,2.8,0.1,3.9c-1.1,1.1-2.9,1-3.9-0.1
		c-1-1.1-0.9-2.7,0.1-3.7c0.3-0.3,0.7-0.5,1.1-0.8c0-0.3,0.1-0.6,0.1-1c0-4.7,0-9.5,0-14.2c0-0.8-0.3-1.4-0.8-1.9
		c-4.7-4.7-9.4-9.4-14.1-14.1c-0.7-0.7-1.4-1.4-2.1-1.9c-0.4,0.1-0.4,0.4-0.4,0.6c0,0.3,0,0.6,0,0.9c-0.1,21.1-0.2,42.2-0.3,63.3
		c0,2.1,0.2,1.6-1.3,3.1c-2,2-4.1,4.1-6.1,6.1c-0.4,0.4-0.7,0.8-1.1,1.2c0.1,0.4,0.1,0.7,0.2,1c0.2,1.6-0.9,3.1-2.5,3.2
		c-1.6,0.1-2.9-1.2-2.9-2.8c0-1.6,1.4-2.8,3.1-2.6c0.3,0,0.7,0.1,1,0.2c0.3-0.2,0.5-0.4,0.8-0.7c2.2-2.2,4.4-4.4,6.7-6.6
		c0.6-0.6,0.9-1.2,0.9-2.1c0-4.7,0-9.3,0-14c0-18.4-0.1-36.7-0.1-55.1c0-8.5,0.1-16.9,0.1-25.4c0-2,0.2-1.5-1.1-2.8c-1-1-2-2-3-3
		c-7.9-7.9-15.7-15.7-23.6-23.6c-1.7-1.7-1.4-1-1.4-3.3c-0.1-40.8-0.1-81.6-0.1-122.3c0-20.9,0.1-41.8,0.1-62.7c0-0.4,0-0.9,0-1.3
		c0.4-0.5,0.8-0.9,1.3-1.3c13.1-13.1,26.2-26.2,39.2-39.3c1.7-1.7,1.4-1.1,1.4-3.4c0-7.6,0-15.3,0-22.9c0-0.7,0.1-1.4-0.3-2
		C126.2,27.5,127,27.5,127.7,27.5z"/>
	<path class="st2" d="M156.5,16.6c-0.1,0.4-0.2,0.8-0.3,1.3c0,0.3,0,0.6,0,0.9c0,11.3,0,22.6,0,33.9c0,1.8-0.1,1.5,1.1,2.8
		c8.9,8.9,17.9,17.8,26.8,26.8c1.8,1.8,1.5,1.1,1.5,3.6c0.1,19,0.2,38,0.2,57c0,16.8-0.1,33.7-0.2,50.5c0,2.5-0.3,1.9,1.5,3.7
		c5.1,5.2,10.3,10.3,15.5,15.5c0.4,0.4,0.7,0.9,1.3,1c0.1-0.2,0.2-0.4,0.2-0.5c0-0.5,0-1,0-1.5c0-8.5,0-17,0-25.6
		c0-1.9-0.2-1.5,1.1-2.8c2.9-2.9,5.7-5.7,8.6-8.6c0.4-0.4,0.7-0.8,1.1-1.2c-0.1-0.5-0.2-0.9-0.2-1.3c-0.1-1.5,1.2-2.9,2.7-2.8
		c1.5,0,2.7,1.3,2.7,2.7c0,1.5-1.3,2.7-2.8,2.7c-0.4,0-0.9-0.1-1.4-0.2c-0.3,0.2-0.6,0.4-0.8,0.7c-2.9,2.9-5.9,5.9-8.8,8.8
		c-0.6,0.6-0.9,1.3-0.9,2.2c0,9.3,0,18.6,0,27.9c0,1,0.4,1.7,1.1,2.4c6.7,6.6,13.3,13.3,20,19.9c0.4,0.4,0.8,0.8,1.2,1.2
		c0.3,0.3,0.4,0.6,0.4,1c0,0.3,0,0.7,0,1c0.1,17.5,0.1,35,0.2,52.4c0,1.1,0.3,1.9,1,2.6c1.5,1.5,2.9,3,4.4,4.5
		c1.8,1.8,3.6,3.6,5.4,5.4c0.8,0.7,1.1,1.5,1.1,2.6c0,12.1,0,24.3,0,36.4c0,7.2,0,14.5,0,21.7c0,0.6,0,1.2,0,1.8
		c0.4,0.3,0.8,0.5,1.1,0.8c0.9,0.8,1.2,2,0.7,3.1c-0.5,1.1-1.5,1.7-2.7,1.6c-1.2-0.1-2.1-0.8-2.4-2c-0.3-1,0-1.9,0.8-2.7
		c0.3-0.3,0.7-0.5,1.1-0.9c0-0.4,0.1-0.9,0.1-1.4c0-19.3,0-38.7,0-58c0-0.3,0-0.6,0-0.9c0-0.4-0.1-0.8-0.4-1.1c-3.1-3-6.1-6-9.2-9.1
		c-0.2-0.2-0.4-0.3-0.7-0.5c-0.1,0.3-0.1,0.6-0.1,0.8c0,0.2,0,0.5,0,0.7c-0.1,31.6-0.1,63.3-0.2,94.9c0,0.6,0,1.2,0,1.8
		c0.4,0.3,0.8,0.5,1.1,0.8c0.9,0.8,1.2,2,0.7,3.1c-0.4,1-1.4,1.7-2.5,1.7c-1.2,0-2.2-0.7-2.6-1.9c-0.4-1.1-0.1-2,0.7-2.8
		c0.3-0.3,0.7-0.5,1.1-0.9c0-0.6,0.1-1.2,0.1-1.8c0-10.2,0-20.4,0-30.5c-0.1-22-0.2-44-0.2-65.9c0-18.4,0.1-36.8,0.2-55.2
		c0-2.8,0.4-1.9-1.6-3.9c-13.1-13.1-26.2-26.2-39.3-39.4c-1.6-1.6-1.4-1.1-1.4-3.4c-0.1-18.5-0.2-37-0.2-55.5c0-0.4,0-0.8-0.1-1.4
		c-0.3,0.2-0.6,0.3-0.7,0.4c-0.6,0.6-1.2,1.1-1.8,1.7c-2.4,2.4-4.8,4.9-7.3,7.2c-0.7,0.6-1,1.3-0.9,2.2c0,0.2,0,0.5,0,0.7
		c0,20,0,39.9,0,59.9c0,2.5-0.2,2,1.5,3.7c12.6,12.6,25.1,25.1,37.7,37.7c1.8,1.8,1.4,1.1,1.5,3.6c0,17.3,0,34.7,0,52
		c0,0.6,0,1.3,0,1.9c0.4,0.3,0.8,0.6,1.2,0.9c1.1,1,1.2,2.6,0.2,3.7c-1,1.1-2.6,1.3-3.7,0.4c-1.3-1-1.4-3-0.2-4.1
		c0.3-0.3,0.7-0.5,1.1-0.9c0-0.5,0.1-1.1,0.1-1.7c0-8.7,0-17.3,0-26c0-3.2,0-6.4,0-9.5c0-0.5,0-1,0-1.6c-0.3,0.1-0.5,0.2-0.7,0.3
		c-0.2,0.2-0.4,0.4-0.6,0.6c-3.6,3.6-7.2,7.2-10.8,10.8c-1.4,1.4-1.2,1-1.2,2.9c0,15.6,0,31.2,0,46.9c0,14.6,0,29.3,0,43.9
		c0,2.1,0.3,1.6-1.3,3.2c-3.4,3.4-6.7,6.7-10.1,10.1c-0.4,0.4-0.8,0.8-1.2,1.3c0,0.6,0.1,1.1,0.1,1.7c0,1.1-0.5,1.9-1.5,2.3
		c-1,0.5-2,0.3-2.9-0.4c-0.9-0.7-1.2-2-0.8-3.1c0.4-1,1.4-1.7,2.5-1.7c0.5,0,1,0.1,1.5,0.2c0.3-0.2,0.6-0.5,0.8-0.8
		c3.5-3.5,7-7,10.5-10.5c0.1-0.1,0.1-0.1,0.2-0.2c0.6-0.5,0.8-1.1,0.8-1.8c0-0.5,0-1.1,0-1.6c0-29.7,0-59.3,0-89
		c0-0.9,0.1-1.8,0.1-2.6c0.6-0.7,1.2-1.4,1.9-2c3.7-3.7,7.5-7.5,11.2-11.2c0.2-0.2,0.5-0.5,0.7-0.7c0.6-0.5,0.8-1.2,0.8-1.9
		c0-3.6,0-7.1,0-10.7c0-0.6,0-1.2,0-1.8c0-0.5-0.2-0.9-0.5-1.3c-0.4-0.3-0.7-0.7-1-1c-12.5-12.5-25-25-37.5-37.5
		c-1.8-1.8-1.5-1.1-1.5-3.7c0-16.3,0-32.6,0-48.9c0-0.6,0.1-1.3-0.2-2c-0.3,0.1-0.5,0.2-0.6,0.3c-2,2-4,4-6,6
		c-0.3,0.3-0.5,0.7-0.5,1.2c0,0.3,0,0.7,0,1c0,11.8,0,23.7,0,35.5c0,0.5,0,1.1,0,1.6c0.4,0.3,0.8,0.6,1.2,0.9
		c0.8,0.8,1.1,1.7,0.8,2.8c-0.3,1.1-1.3,1.8-2.4,1.9c-1.1,0.1-2.2-0.6-2.6-1.5c-0.5-1-0.3-2.2,0.5-3c0.3-0.3,0.8-0.6,1.2-1
		c0-0.6,0-1.2,0-1.8c0-11.9,0-23.8,0-35.7c0-2.3-0.3-1.7,1.4-3.4c2-2.1,4.1-4.1,6.1-6.1c0.8-0.8,1.2-1.6,1.1-2.7c-0.1-2.3,0-4.7,0-7
		c0-0.9,0.3-1.6,0.9-2.2c2.4-2.4,4.8-4.8,7.2-7.2c1.1-1.1,2.2-2.4,3.3-3.5c0.5-0.5,0.7-1,0.6-1.7c0-0.1,0-0.3,0-0.4
		c0-11.9,0.1-23.9,0.1-35.8c0-3.6,0.1-7.1,0.1-10.7c0-0.4,0-0.8,0-1.2c0-0.7-0.2-1.2-0.7-1.7c-0.7-0.7-1.4-1.4-2.1-2.1
		c-8.4-8.4-16.8-16.8-25.2-25.2c-1.5-1.5-1.4-1.1-1.4-3.3c0-11.3,0-22.5,0-33.8c0-0.9-0.1-1.8-0.2-2.6
		C155.3,16.6,155.9,16.6,156.5,16.6z"/>
	<path class="st3" d="M213.8,19.3c0,0.6,0.3,1,0.7,1.4c1.8,1.8,3.6,3.6,5.4,5.4c0.5,0.5,1,1,1.6,1.6c0.4,0.4,0.6,0.8,0.5,1.3
		c0,0.4,0,0.9,0,1.3c0,9.7,0.1,19.5,0.1,29.2c0,0.3,0,0.6,0,0.9c-0.1,1.1,0.3,1.8,1.1,2.6c3.7,3.6,7.3,7.3,11,11
		c0.2,0.2,0.5,0.4,0.8,0.6c0.4-0.4,0.3-0.8,0.3-1.2c0-2.4,0-4.9,0-7.3c0-1.9,0-3.8,0-5.7c0-2.3-0.2-1.7,1.3-3.3
		c1.3-1.3,2.6-2.6,3.8-3.8c0.3-0.3,0.8-0.6,1.1-0.9c0-0.8-0.1-1.4-0.1-2c0-1.1,0.6-1.9,1.5-2.3c1-0.4,1.9-0.3,2.8,0.3
		c0.9,0.7,1.3,2.1,0.8,3.2c-0.5,1-1.6,1.7-2.7,1.6c-0.4,0-0.8-0.1-1.2-0.2c-0.3,0.3-0.7,0.6-1,0.9c-1.4,1.4-2.7,2.8-4.2,4.1
		c-0.7,0.7-1,1.4-1,2.3c0,4.2,0,8.4,0,12.6c0,0.8,0,1.7,0,2.5c0,0.6,0.2,1,0.6,1.4c0.3,0.3,0.6,0.6,0.8,0.8
		c4.7,4.7,9.4,9.4,14.1,14.1c0.2,0.2,0.5,0.5,0.7,0.7c0.4,0.4,0.6,0.8,0.6,1.4c0,0.4,0,0.9,0,1.3c0,17,0,34.1,0,51.1
		c0,2.4-0.3,1.8,1.5,3.6c5.5,5.5,11,11,16.5,16.5c0.2,0.2,0.4,0.4,0.6,0.6c0.4,0.3,0.5,0.7,0.5,1.2c0,0.5,0,1,0,1.5
		c0.3,39.3,0,78.6,0,117.9c0,10.7,0,21.4,0,32.2c0,0.6,0,1.3,0,1.8c0.4,0.3,0.8,0.6,1.1,0.9c0.8,0.8,1.1,1.9,0.7,3
		c-0.4,1.1-1.3,1.7-2.5,1.7c-1.2,0-2.1-0.6-2.5-1.7c-0.4-1-0.2-2.2,0.6-3c0.3-0.3,0.7-0.5,1.1-0.8c0.2-0.5,0.1-1,0.1-1.6
		c0-4.5,0-8.9,0-13.4c-0.1-31.3-0.1-62.6-0.2-93.8c0-7.1,0-14.2,0.1-21.3c0-0.5,0-1.1,0-1.6c-0.3-0.3-0.5-0.1-0.7,0.1
		c-0.9,0.8-1.8,1.7-2.7,2.5c-3.8,3.8-7.5,7.5-11.3,11.3c-0.2,0.2-0.4,0.4-0.6,0.6c-0.4,0.4-0.6,0.8-0.5,1.3c0,0.4,0,0.9,0,1.3
		c0,25.4,0,50.7,0,76.1c0,0.6,0,1.3,0,1.9c0.4,0.3,0.8,0.5,1.1,0.8c1.2,1,1.3,2.8,0.2,3.9c-1.1,1.1-2.9,1.1-3.9,0
		c-1.1-1.1-1-2.9,0.2-3.9c0.3-0.3,0.6-0.5,1-0.8c0-0.6,0.1-1.3,0.1-2c0-6.2,0-12.3,0-18.5c0-9.9,0-19.8,0-29.7c0-0.6,0.1-1.3-0.2-2
		c-0.3,0.2-0.6,0.4-0.8,0.6c-2.1,2.1-4.2,4.2-6.2,6.2c-0.4,0.4-0.7,0.9-0.7,1.6c0,0.3,0,0.7,0,1c0,10,0,20,0,30c0,0.6,0,1.3,0,1.9
		c0.4,0.3,0.7,0.5,1,0.7c1,0.8,1.3,2.1,0.8,3.2c-0.5,1.1-1.6,1.8-2.7,1.7c-1.2-0.1-2.2-1-2.5-2.2c-0.2-1,0.1-1.8,0.8-2.5
		c0.3-0.3,0.7-0.5,1.1-0.9c0-0.6,0-1.2,0-1.9c0-10,0-20.1,0-30.1c0-0.4,0-0.8,0-1.2c-0.1-0.9,0.3-1.5,0.9-2.1
		c2.4-2.3,4.7-4.7,7.1-7.1c1.3-1.3,1.3-0.9,1.3-3.1c0-7.5,0-15,0-22.5c0-2.4-0.2-1.9,1.5-3.6c3.9-4,7.9-7.9,11.8-11.8
		c1.1-1.1,2.1-2.2,3.2-3.3c0.4-0.4,0.6-0.9,0.6-1.6c0-1.7,0-3.4,0-5.1c0-3.9,0-7.8,0.1-11.7c0-1-0.3-1.6-0.9-2.3
		c-5.6-5.6-11.2-11.2-16.8-16.8c-0.4-0.4-0.9-0.9-1.3-1.4c0-0.7,0-1.3,0-1.9c0-17,0-34,0-51c0-0.3,0-0.7,0-1c0.1-1-0.3-1.6-1-2.3
		c-8.9-8.8-17.7-17.7-26.6-26.6c-0.7-0.7-1.3-1.3-2.1-2c-0.1,0.4-0.2,0.6-0.2,0.8c0,0.8,0,1.7,0,2.5c0,8.6,0.1,17.1,0.1,25.7
		c0,0.3,0,0.7,0,1c0,0.5,0.1,0.9,0.5,1.3c0.9,1,1.8,2,2.7,2.9c2.8,2.8,5.6,5.6,8.4,8.4c0.4,0.4,0.8,0.8,1.3,1.3c0,5.9,0,11.8,0,17.8
		c0.4,0.3,0.7,0.5,1.1,0.8c0.9,0.8,1.2,2,0.8,3c-0.5,1.2-1.5,1.8-2.8,1.7c-1.2-0.1-2.1-0.9-2.4-2.1c-0.2-1,0.1-1.8,0.8-2.5
		c0.3-0.3,0.7-0.5,1.1-0.8c0-0.5,0.1-0.9,0.1-1.4c0-4.8,0-9.7,0-14.5c0-0.3,0-0.6,0-0.9c-0.1-0.3-0.2-0.6-0.4-0.9
		c-0.1-0.2-0.3-0.3-0.4-0.4c-2.9-2.9-5.8-5.7-8.6-8.6c-0.6-0.6-1.2-1.1-1.9-1.6c-0.3,0.5-0.2,0.9-0.2,1.2c0,3.8,0,7.5,0,11.3
		c0,9.5-0.1,19-0.2,28.5c0,2.1-0.1,1.7,1.2,3.1c2.5,2.5,5,5,7.5,7.5c5.4,5.4,10.9,10.9,16.3,16.3c0.4,0.4,0.8,0.8,1.3,1.2
		c0.5-0.1,1-0.2,1.5-0.2c1.2,0,2.3,0.7,2.6,1.8c0.4,1.2,0,2.4-1,3.1c-1,0.7-2.2,0.7-3.2-0.1c-0.7-0.5-1.1-1.3-1-2.2
		c0-0.5,0.1-1,0.1-1.6c-2.6-2.6-5.3-5.3-8-7.9c-0.1-0.1-0.3-0.2-0.4-0.3c-0.4,0.2-0.3,0.6-0.3,0.8c0,2,0,3.9,0,5.9c0.2,14,0,28,0,42
		c0,0.9-0.2,1.6-0.9,2.2c-0.8,0.7-1.5,1.5-2.3,2.3c-0.3,0.3-0.5,0.6-0.7,0.8c0.1,0.6,0.1,1,0.1,1.5c0,1.3-0.8,2.3-2,2.6
		c-1.3,0.3-2.6-0.3-3.1-1.4c-0.6-1.1-0.2-2.5,0.7-3.3c0.5-0.4,1.1-0.6,1.8-0.5c0.4,0,0.9,0.1,1.3,0.1c0.6-0.5,3.1-2.7,3.4-3.3
		c0.2-0.2,0.3-0.5,0.3-0.8c0-0.4,0-0.9,0-1.3c-0.1-16-0.2-31.9,0-47.9c0-0.2,0-0.5,0-0.7c0.1-0.6-0.2-1-0.6-1.4
		c-0.4-0.4-0.8-0.8-1.1-1.2c-4.5-4.5-9-9-13.5-13.5c-1.5-1.5-1.3-1-1.3-3.2c-0.2-29.2-0.2-58.5,0-87.7c0-6.9,0-13.8,0.1-20.7
		c0-0.2,0-0.5,0-0.7c0.1-0.9-0.3-1.6-0.9-2.2c-2.6-2.6-5.2-5.2-7.8-7.8c-0.2-0.2-0.5-0.5-0.7-0.8C212.2,19.3,213,19.3,213.8,19.3z"
		/>
	<linearGradient id="SVGID_2_" gradientUnits="userSpaceOnUse" x1="185.329" y1="211.3233" x2="265.637" y2="211.3233">
		<stop  offset="0" style="stop-color:#B2E3F5"/>
		<stop  offset="0.5657" style="stop-color:#0015CD"/>
		<stop  offset="0.6765" style="stop-color:#0015CD"/>
	</linearGradient>
	<path class="st4" d="M187.1,22.7c-0.3,0.5-0.3,1-0.3,1.6c0,4.9,0,9.9,0,14.8c0,0.7,0.2,1.3,0.8,1.8c0.3,0.2,0.5,0.5,0.7,0.7
		c12.1,12.2,24.3,24.3,36.4,36.5c1.7,1.7,1.4,1.1,1.4,3.3c0,15,0,30.1,0,45.1c0,0.6,0,1.3,0,1.8c0.5,0.4,0.9,0.6,1.2,1
		c0.9,0.9,1,2.2,0.4,3.2c-0.6,1.1-1.9,1.6-3,1.3c-1.2-0.3-2-1.4-2-2.6c0-0.8,0.3-1.5,1-2.1c0.3-0.3,0.6-0.5,1-0.7
		c0.2-0.6,0.1-1.2,0.1-1.7c0-5.9,0-11.7,0-17.6c0-9,0-18,0-27c0-0.3,0-0.6,0-0.9c0.1-0.9-0.3-1.5-0.9-2.1
		c-6.8-6.7-13.5-13.5-20.2-20.3c-0.3-0.3-0.6-0.6-1.1-1c-0.1,0.3-0.3,0.5-0.3,0.7c0,0.4,0,0.9,0,1.3c0,16.6,0,33.2,0,49.8
		c0,2.1-0.2,1.6,1.3,3.1c3.1,3.1,6.2,6.3,9.3,9.3c0.7,0.7,1,1.4,1,2.5c-0.1,3.1,0,6.2,0,9.3c0,0.5,0,1,0,1.5c0,0.7,0.2,1.2,0.7,1.7
		c0.3,0.3,0.6,0.6,0.9,0.9c7,7,14,14.1,21.1,21.1c1.4,1.4,1.2,1,1.2,2.8c0,19.7,0,39.5-0.1,59.2c0,0.2,0,0.5,0,0.7
		c0,0.5-0.1,1-0.5,1.3c-0.3,0.2-0.5,0.5-0.7,0.7c-3.2,3.2-6.4,6.4-9.6,9.5c-1,1-1.9,2-2.8,3c-0.3,0.3-0.5,0.7-0.5,1.2
		c0,0.3,0,0.6,0,0.9c0,6.6,0.1,13.2,0.1,19.8c0,1,0.3,1.8,1,2.5c1,1,2,2.2,3,3.2c5.8,5.8,11.6,11.6,17.5,17.4c0,0,0.1,0.1,0.1,0.1
		c0.9,0.6,1.1,1.5,1.1,2.6c0.2,24.6,0.3,49.3,0,73.9c-0.1,6.5-0.1,12.9-0.1,19.4c0,0.4,0,0.8,0,1.2c0,0.6,0.2,1.1,0.7,1.6
		c0.2,0.2,0.3,0.3,0.5,0.5c4.4,4.4,8.8,8.8,13.2,13.2c0.3,0.3,0.6,0.6,1,0.9c0.5-0.1,0.9-0.2,1.3-0.2c1.6-0.1,2.9,1.1,2.9,2.7
		c0,1.5-1.3,2.8-2.8,2.8c-1.5,0-2.8-1.3-2.7-2.9c0-0.4,0.1-0.8,0.2-1.2c-0.2-0.5-0.6-0.9-1-1.2c-4.4-4.4-8.9-8.9-13.3-13.3
		c-1.4-1.4-1.3-1-1.3-3.2c-0.1-16.7-0.2-33.4-0.3-50.1c0-10.6,0.1-21.1,0.2-31.7c0-3.9,0-7.8,0.1-11.7c0-1-0.3-1.8-1-2.5
		c-3.9-3.9-7.7-7.8-11.6-11.7c-2-2-3.9-4-5.9-5.9c-0.6-0.6-1.2-1.1-1.8-1.7c-0.2-0.1-0.4-0.2-0.6-0.4c-0.3,0.5-0.2,0.9-0.2,1.4
		c-0.1,7.8-0.1,15.7-0.2,23.5c-0.1,16.9-0.2,33.9-0.2,50.8c0,2.5,0.2,1.9-1.5,3.6c-1.7,1.7-3.4,3.4-5.1,5.1c-0.3,0.3-0.7,0.7-1,1.1
		c0.1,0.5,0.1,1,0.2,1.5c0,1.6-1.2,2.8-2.8,2.7c-1.5-0.1-2.7-1.3-2.6-2.8c0.1-1.5,1.4-2.7,3-2.6c0.4,0,0.8,0.1,1.2,0.2
		c0.3-0.2,0.5-0.4,0.8-0.6c1.9-1.9,3.8-3.8,5.7-5.7c0.6-0.6,0.9-1.2,0.9-2.1c0-0.6,0-1.2,0-1.8c-0.1-23.9-0.1-47.9-0.2-71.8
		c0-9,0.1-18,0.1-27c0-0.2,0-0.5,0-0.7c0-0.6,0.2-1,0.6-1.4c0.2-0.2,0.4-0.4,0.6-0.6c4.1-4,8.2-8,12.3-12c0.7-0.7,1-1.4,1-2.3
		c0-9.9,0-19.8,0-29.7c0-3.4,0-6.9,0-10.3c0-0.4,0-0.9-0.1-1.4c-0.3,0.1-0.5,0.2-0.7,0.3c-0.2,0.2-0.4,0.4-0.6,0.6
		c-3.4,3.4-6.8,6.8-10.2,10.2c-0.7,0.7-1.1,1.3-1,2.3c0.1,1.5,0,3,0,4.6c0,6.2,0,12.4,0,18.7c0,0.6,0,1.2,0,1.7
		c0.4,0.4,0.9,0.6,1.2,1c1.6,1.7,0.5,4.1-1.2,4.6c-1.5,0.4-3.1-0.5-3.4-2c-0.2-1.1,0.1-2.1,1-2.9c0.3-0.2,0.5-0.4,0.9-0.6
		c0-0.6,0-1.2,0.1-1.9c0-7.7,0-15.5,0.1-23.2c0-2-0.2-1.6,1.2-2.9c3.7-3.7,7.4-7.4,11.1-11.1c0.2-0.2,0.5-0.5,0.7-0.7
		c0.7-0.5,0.8-1.2,0.8-2.1c0-4.6,0-9.1,0-13.7c0-0.9-0.3-1.6-0.9-2.2c-6.8-6.7-13.5-13.5-20.2-20.3c-0.3-0.3-0.6-0.8-1.1-0.9
		c-0.4,0.4-0.3,0.9-0.3,1.4c0,1.7,0,3.3,0,5c0,2.6,0,5.3,0,7.9c0,2.6-0.1,2,1.5,3.6c0.5,0.6,1.1,1.1,1.7,1.6
		c0.5-0.1,0.9-0.2,1.3-0.2c1.2-0.1,2.3,0.7,2.7,1.8c0.4,1.3-0.2,2.5-1,3.1c-1,0.7-2.4,0.6-3.3-0.2c-0.6-0.5-0.9-1.1-0.9-1.9
		c0-0.5,0.1-1,0.1-1.6c-0.2-0.2-0.4-0.5-0.7-0.8c-0.7-0.7-1.4-1.5-2.2-2.2c-0.4-0.4-0.6-0.8-0.5-1.3c0-0.4,0-0.9,0-1.3
		c0-9.4,0-18.7,0-28.1c0-2,0.2-1.6-1.3-3.1c-3-3-6-6-9-9c-0.2-0.2-0.5-0.5-0.7-0.7c-0.5-0.4-0.7-0.9-0.7-1.6c0-0.4,0-0.9,0-1.3
		c0-17.2,0-34.5,0.1-51.7c0-2.3,0.2-1.7-1.4-3.3c-4.2-4.2-8.4-8.5-12.6-12.7c-0.3-0.3-0.6-0.6-0.9-0.9c-0.3-0.3-0.5-0.7-0.5-1.2
		c0-0.4,0-0.9,0-1.3c0-4.6,0-9.1,0-13.7c0-0.8-0.1-1.6-0.2-2.3C185.9,22.7,186.5,22.7,187.1,22.7z"/>
	<path class="st5" d="M175.6,577.4c0.7,0,1.5,0.1,2.2,0.1c8.2,0,16.3,0,24.5,0c2.3,0,1.7,0.3,3.4-1.4c7.7-7.6,15.3-15.3,23-22.9
		c1.8-1.8,1.1-1.5,3.5-1.5c30.9,0,61.8,0,92.7,0c0.4,0,0.9,0,1.3,0c1,0.1,1.7-0.1,2.3-1.1c0.9-1.4,2.9-1.3,4-0.2
		c1.1,1.1,1,2.9-0.2,3.9c-1.1,0.9-2.7,0.8-3.7-0.2c-0.3-0.3-0.5-0.7-0.8-1.1c-0.7,0-1.3,0-2,0c-22.6,0-45.1,0-67.7,0
		c-8.6,0-17.1,0-25.7,0c-1.9,0-1.5-0.1-2.8,1.2c-7.9,7.8-15.7,15.7-23.6,23.6c-0.4,0.4-0.8,0.8-1.2,1.2c-0.6,0-1.1,0-1.7,0
		c-8.3,0-16.6,0-25,0c-0.8,0-1.7,0-2.5,0.1C175.6,578.3,175.6,577.8,175.6,577.4z"/>
	<path class="st6" d="M70.2,27.5c0,0.7-0.1,1.4-0.1,2c0,6.6,0,13.2,0,19.8c0,0.3,0,0.7,0,1c0.1,0.3,0.2,0.7,0.4,0.9
		c0.3,0.4,0.7,0.7,1,1.1c6.5,6.5,12.9,12.9,19.4,19.4c0.3,0.3,0.6,0.6,0.8,0.8c0.4,0.4,0.6,0.8,0.6,1.3c0,0.5,0,1.1,0,1.6
		c0,17.7,0,35.3,0,53c0,0.7,0.1,1.5,0.1,2.1c0.4,0.3,0.8,0.6,1.1,0.9c0.8,0.8,1.1,1.7,0.7,2.8c-0.4,1.1-1.3,1.8-2.4,1.8
		c-1.1,0-2-0.5-2.5-1.5c-0.6-1.1-0.3-2.4,0.6-3.2c0.3-0.3,0.7-0.5,1.1-0.8c0-0.6,0-1.2,0-1.9c0-15.7,0-31.3,0-47c0-2.2,0-4.4,0-6.6
		c0-1-0.3-1.7-1-2.4c-6.4-6.3-12.7-12.7-19-19c-0.8-0.8-1.5-1.5-2.3-2.3c0-0.6,0-1.2,0-1.8c0-6.6,0-13.1,0-19.7c0-0.8,0-1.7-0.1-2.5
		C69.2,27.5,69.7,27.5,70.2,27.5z"/>
	<path class="st5" d="M33.5,442.5c0.5,0.3,1,0.3,1.6,0.3c0.9,0,1.8,0,2.6,0c11.3,0,22.6,0,33.9,0c0.4,0,0.9,0,1.3,0
		c0.6,0,1-0.2,1.4-0.6c0.2-0.2,0.3-0.3,0.5-0.5c4.9-4.9,9.7-9.8,14.6-14.7c6.4-6.4,12.8-12.8,19.2-19.2c0.7-0.7,1.4-0.9,2.3-0.9
		c6.9,0,13.7,0,20.6,0c0.4,0,0.8,0,1.2,0c0.9,0.1,1.5-0.1,2.1-1c1-1.6,3.8-1.5,4.6,0.6c0.4,1.1,0,2.4-0.9,3.1
		c-0.9,0.6-2.3,0.6-3.2,0c-0.2-0.2-0.5-0.4-0.6-0.6c-0.4-0.8-1-0.9-1.8-0.9c-7.2,0-14.4,0-21.6,0c-0.9,0-1.5,0.3-2.1,0.9
		c-5.2,5.2-10.4,10.4-15.6,15.6c-6.1,6.1-12.2,12.2-18.3,18.3c-0.8,0.8-1.6,1.1-2.7,1.1c-7.2,0-14.5,0-21.7,0c-5.1,0-10.2,0-15.3,0
		c-0.8,0-1.5,0.1-2.3,0.2C33.5,443.7,33.5,443.1,33.5,442.5z"/>
	<path class="st5" d="M609.5,239.3c-4.8,0-9.6,0-14.4,0c-70.6,0-141.1-0.1-211.7-0.1c-15.4,0-30.7,0-46.1,0c-0.6,0-1.3-0.1-1.9-0.2
		c90.9,0,181.8,0,272.8,0c0.4,0,0.9,0,1.3,0C609.5,239,609.5,239.2,609.5,239.3z"/>
	
		<linearGradient id="SVGID_3_" gradientUnits="userSpaceOnUse" x1="-395.0022" y1="397.1522" x2="-370.4354" y2="397.1522" gradientTransform="matrix(6.123234e-17 1 -1 6.123234e-17 510.0013 418.4921)">
		<stop  offset="0.1047" style="stop-color:#8CD5F0"/>
		<stop  offset="0.2659" style="stop-color:#629BE5"/>
		<stop  offset="0.4209" style="stop-color:#3F6BDD"/>
		<stop  offset="0.5669" style="stop-color:#2346D6"/>
		<stop  offset="0.7019" style="stop-color:#102BD1"/>
		<stop  offset="0.8217" style="stop-color:#041BCE"/>
		<stop  offset="0.914" style="stop-color:#0015CD"/>
	</linearGradient>
	<path class="st7" d="M113.7,23.5c-0.1,0.7-0.2,1.4-0.2,2c0,5.2,0,10.4,0,15.6c0,0.5,0,1,0.1,1.5c0.4,0.3,0.7,0.5,1.1,0.8
		c0.9,0.8,1,1.8,0.8,2.9c-0.2,0.9-1.3,1.7-2.3,1.8c-1.1,0.1-2-0.4-2.5-1.4c-0.6-1-0.4-2.4,0.5-3.2c0.2-0.2,0.5-0.4,0.7-0.5
		c0.4-0.2,0.5-0.6,0.5-1c0-0.2,0-0.5,0-0.7c0-5.3,0-10.6,0-15.8c0-0.6,0-1.3-0.3-1.9C112.5,23.5,113.1,23.5,113.7,23.5z"/>
	<linearGradient id="SVGID_4_" gradientUnits="userSpaceOnUse" x1="38.2944" y1="496.9485" x2="53.2147" y2="496.9485">
		<stop  offset="0.1047" style="stop-color:#8CD5F0"/>
		<stop  offset="0.2659" style="stop-color:#629BE5"/>
		<stop  offset="0.4209" style="stop-color:#3F6BDD"/>
		<stop  offset="0.5669" style="stop-color:#2346D6"/>
		<stop  offset="0.7019" style="stop-color:#102BD1"/>
		<stop  offset="0.8217" style="stop-color:#041BCE"/>
		<stop  offset="0.914" style="stop-color:#0015CD"/>
	</linearGradient>
	<path class="st8" d="M38.3,496c0.5,0.1,0.9,0.3,1.4,0.3c2.3,0,4.7,0,7,0c0.7,0,1.2-0.2,1.5-0.8c0.5-0.9,1.3-1.2,2.3-1.2
		c1.5,0,2.6,1.4,2.6,2.6c0,1.5-1.1,2.6-2.6,2.7c-0.9,0-1.7-0.3-2.3-1c-0.2-0.3-0.4-0.6-0.6-0.9c-0.5,0-1-0.1-1.6-0.1
		c-2,0-3.9,0-5.9,0c-0.7,0-1.4,0.1-2,0.2C38.3,497.2,38.3,496.6,38.3,496z"/>
	<linearGradient id="SVGID_5_" gradientUnits="userSpaceOnUse" x1="33.4564" y1="239.1101" x2="34.0587" y2="239.1101">
		<stop  offset="0.1047" style="stop-color:#8CD5F0"/>
		<stop  offset="0.2659" style="stop-color:#629BE5"/>
		<stop  offset="0.4209" style="stop-color:#3F6BDD"/>
		<stop  offset="0.5669" style="stop-color:#2346D6"/>
		<stop  offset="0.7019" style="stop-color:#102BD1"/>
		<stop  offset="0.8217" style="stop-color:#041BCE"/>
		<stop  offset="0.914" style="stop-color:#0015CD"/>
	</linearGradient>
	<path class="st9" d="M34.1,239c-0.2,0.1-0.4,0.2-0.6,0.3c0.1-0.1-0.1-0.3,0.1-0.3C33.8,239,33.9,239,34.1,239z"/>
	<path class="st5" d="M573.1,419.3c-0.1,0.1-0.2,0.3-0.3,0.3c-0.1,0-0.3-0.1-0.3-0.2c0-0.1,0.1-0.3,0.2-0.3
		C572.8,419.1,573,419.2,573.1,419.3z"/>
	<g id="Layer_4">
	</g>
</g>
<g id="Layer_3">
</g>
</svg>
