<?xml version="1.0" encoding="utf-8"?>
<!-- Generator: Adobe Illustrator 23.1.1, SVG Export Plug-In . SVG Version: 6.00 Build 0)  -->
<svg version="1.1" xmlns="http://www.w3.org/2000/svg" xmlns:xlink="http://www.w3.org/1999/xlink" x="0px" y="0px"
	 viewBox="0 0 310.7 568" style="enable-background:new 0 0 310.7 568;" xml:space="preserve">
<style type="text/css">
	.st0{fill:#A7A7A7;}
	.st1{fill:url(#SVGID_1_);}
	.st2{fill:url(#SVGID_2_);}
	.st3{fill:url(#SVGID_3_);}
	.st4{fill:url(#SVGID_4_);}
	.st5{fill:url(#SVGID_5_);}
	.st6{fill:url(#SVGID_6_);}
	.st7{fill:url(#SVGID_7_);}
	.st8{fill:url(#SVGID_8_);}
	.st9{fill:url(#SVGID_9_);}
	.st10{fill:url(#SVGID_10_);}
	.st11{fill:url(#SVGID_11_);}
</style>
<g id="Layer_2">
	<path class="st0" d="M179.1,11.3c-0.1,0.4-0.2,0.8-0.3,1.3c0,0.3,0,0.6,0,0.9c0,11.3,0,22.6,0,33.9c0,1.8-0.1,1.5,1.1,2.8
		c8.9,8.9,17.9,17.8,26.8,26.8c1.8,1.8,1.5,1.1,1.5,3.6c0.1,19,0.2,38,0.2,57c0,16.8-0.1,33.7-0.2,50.5c0,2.5-0.3,1.9,1.5,3.7
		c5.1,5.2,10.3,10.3,15.5,15.5c0.4,0.4,0.7,0.9,1.3,1c0.1-0.2,0.2-0.4,0.2-0.5c0-0.5,0-1,0-1.5c0-8.5,0-17,0-25.6
		c0-1.9-0.2-1.5,1.1-2.8c2.9-2.9,5.7-5.7,8.6-8.6c0.4-0.4,0.7-0.8,1.1-1.2c-0.1-0.5-0.2-0.9-0.2-1.3c-0.1-1.5,1.2-2.9,2.7-2.8
		c1.5,0,2.7,1.3,2.7,2.7c0,1.5-1.3,2.7-2.8,2.7c-0.4,0-0.9-0.1-1.4-0.2c-0.3,0.2-0.6,0.4-0.8,0.7c-2.9,2.9-5.9,5.9-8.8,8.8
		c-0.6,0.6-0.9,1.3-0.9,2.2c0,9.3,0,18.6,0,27.9c0,1,0.4,1.7,1.1,2.4c6.7,6.6,13.3,13.3,20,19.9c0.4,0.4,0.8,0.8,1.2,1.2
		c0.3,0.3,0.4,0.6,0.4,1c0,0.3,0,0.7,0,1c0.1,17.5,0.1,35,0.2,52.4c0,1.1,0.3,1.9,1,2.6c1.5,1.5,2.9,3,4.4,4.5
		c1.8,1.8,3.6,3.6,5.4,5.4c0.8,0.7,1.1,1.5,1.1,2.6c0,12.1,0,24.3,0,36.4c0,7.2,0,14.5,0,21.7c0,0.6,0,1.2,0,1.8
		c0.4,0.3,0.8,0.5,1.1,0.8c0.9,0.8,1.2,2,0.7,3.1c-0.5,1.1-1.5,1.7-2.7,1.6c-1.2-0.1-2.1-0.8-2.4-2c-0.3-1,0-1.9,0.8-2.7
		c0.3-0.3,0.7-0.5,1.1-0.9c0-0.4,0.1-0.9,0.1-1.4c0-19.3,0-38.7,0-58c0-0.3,0-0.6,0-0.9c0-0.4-0.1-0.8-0.4-1.1c-3.1-3-6.1-6-9.2-9.1
		c-0.2-0.2-0.4-0.3-0.7-0.5c-0.1,0.3-0.1,0.6-0.1,0.8c0,0.2,0,0.5,0,0.7c-0.1,31.6-0.1,63.3-0.2,94.9c0,0.6,0,1.2,0,1.8
		c0.4,0.3,0.8,0.5,1.1,0.8c0.9,0.8,1.2,2,0.7,3.1c-0.4,1-1.4,1.7-2.5,1.7c-1.2,0-2.2-0.7-2.6-1.9c-0.4-1.1-0.1-2,0.7-2.8
		c0.3-0.3,0.7-0.5,1.1-0.9c0-0.6,0.1-1.2,0.1-1.8c0-10.2,0-20.4,0-30.5c-0.1-22-0.2-44-0.2-65.9c0-18.4,0.1-36.8,0.2-55.2
		c0-2.8,0.4-1.9-1.6-3.9c-13.1-13.1-26.2-26.2-39.3-39.4c-1.6-1.6-1.4-1.1-1.4-3.4c-0.1-18.5-0.2-37-0.2-55.5c0-0.4,0-0.8-0.1-1.4
		c-0.3,0.2-0.6,0.3-0.7,0.4c-0.6,0.6-1.2,1.1-1.8,1.7c-2.4,2.4-4.8,4.9-7.3,7.2c-0.7,0.6-1,1.3-0.9,2.2c0,0.2,0,0.5,0,0.7
		c0,20,0,39.9,0,59.9c0,2.5-0.2,2,1.5,3.7c12.6,12.6,25.1,25.1,37.7,37.7c1.8,1.8,1.4,1.1,1.5,3.6c0,17.3,0,34.7,0,52
		c0,0.6,0,1.3,0,1.9c0.4,0.3,0.8,0.6,1.2,0.9c1.1,1,1.2,2.6,0.2,3.7c-1,1.1-2.6,1.3-3.7,0.4c-1.3-1-1.4-3-0.2-4.1
		c0.3-0.3,0.7-0.5,1.1-0.9c0-0.5,0.1-1.1,0.1-1.7c0-8.7,0-17.3,0-26c0-3.2,0-6.4,0-9.5c0-0.5,0-1,0-1.6c-0.3,0.1-0.5,0.2-0.7,0.3
		c-0.2,0.2-0.4,0.4-0.6,0.6c-3.6,3.6-7.2,7.2-10.8,10.8c-1.4,1.4-1.2,1-1.2,2.9c0,15.6,0,31.2,0,46.9c0,14.6,0,29.3,0,43.9
		c0,2.1,0.3,1.6-1.3,3.2c-3.4,3.4-6.7,6.7-10.1,10.1c-0.4,0.4-0.8,0.8-1.2,1.3c0,0.6,0.1,1.1,0.1,1.7c0,1.1-0.5,1.9-1.5,2.3
		c-1,0.5-2,0.3-2.9-0.4c-0.9-0.7-1.2-2-0.8-3.1c0.4-1,1.4-1.7,2.5-1.7c0.5,0,1,0.1,1.5,0.2c0.3-0.2,0.6-0.5,0.8-0.8
		c3.5-3.5,7-7,10.5-10.5c0.1-0.1,0.1-0.1,0.2-0.2c0.6-0.5,0.8-1.1,0.8-1.8c0-0.5,0-1.1,0-1.6c0-29.7,0-59.3,0-89
		c0-0.9,0.1-1.8,0.1-2.6c0.6-0.7,1.2-1.4,1.9-2c3.7-3.7,7.5-7.5,11.2-11.2c0.2-0.2,0.5-0.5,0.7-0.7c0.6-0.5,0.8-1.2,0.8-1.9
		c0-3.6,0-7.1,0-10.7c0-0.6,0-1.2,0-1.8c0-0.5-0.2-0.9-0.5-1.3c-0.4-0.3-0.7-0.7-1-1c-12.5-12.5-25-25-37.5-37.5
		c-1.8-1.8-1.5-1.1-1.5-3.7c0-16.3,0-32.6,0-48.9c0-0.6,0.1-1.3-0.2-2c-0.3,0.1-0.5,0.2-0.6,0.3c-2,2-4,4-6,6
		c-0.3,0.3-0.5,0.7-0.5,1.2c0,0.3,0,0.7,0,1c0,11.8,0,23.7,0,35.5c0,0.5,0,1.1,0,1.6c0.4,0.3,0.8,0.6,1.2,0.9
		c0.8,0.8,1.1,1.7,0.8,2.8c-0.3,1.1-1.3,1.8-2.4,1.9c-1.1,0.1-2.2-0.6-2.6-1.5c-0.5-1-0.3-2.2,0.5-3c0.3-0.3,0.8-0.6,1.2-1
		c0-0.6,0-1.2,0-1.8c0-11.9,0-23.8,0-35.7c0-2.3-0.3-1.7,1.4-3.4c2-2.1,4.1-4.1,6.1-6.1c0.8-0.8,1.2-1.6,1.1-2.7c-0.1-2.3,0-4.7,0-7
		c0-0.9,0.3-1.6,0.9-2.2c2.4-2.4,4.8-4.8,7.2-7.2c1.1-1.1,2.2-2.4,3.3-3.5c0.5-0.5,0.7-1,0.6-1.7c0-0.1,0-0.3,0-0.4
		c0-11.9,0.1-23.9,0.1-35.8c0-3.6,0.1-7.1,0.1-10.7c0-0.4,0-0.8,0-1.2c0-0.7-0.2-1.2-0.7-1.7c-0.7-0.7-1.4-1.4-2.1-2.1
		c-8.4-8.4-16.8-16.8-25.2-25.2c-1.5-1.5-1.4-1.1-1.4-3.3c0-11.3,0-22.5,0-33.8c0-0.9-0.1-1.8-0.2-2.6
		C177.9,11.3,178.5,11.3,179.1,11.3z"/>
	<linearGradient id="SVGID_1_" gradientUnits="userSpaceOnUse" x1="127.7927" y1="194.8545" x2="200.2216" y2="194.8545">
		<stop  offset="0" style="stop-color:#7D7D7D;stop-opacity:0"/>
		<stop  offset="0.9649" style="stop-color:#C6C6C6"/>
	</linearGradient>
	<path class="st1" d="M130.5,11.3c0,0.7,0.4,1.2,0.8,1.6c2.1,2.1,4.1,4.3,6.2,6.4c0.6,0.6,1.2,1.2,1.8,1.9c0.4,0.4,0.6,0.9,0.6,1.6
		c0,0.5,0,1.1,0,1.6c0,11.6,0.1,23.2,0.1,34.9c0,0.4,0,0.7,0,1.1c-0.2,1.3,0.3,2.2,1.2,3.1c4.2,4.4,8.4,8.8,12.6,13.1
		c0.3,0.3,0.6,0.5,0.9,0.7c0.5-0.5,0.3-1,0.3-1.4c0-2.9,0-5.8,0-8.8c0-2.3,0-4.6,0-6.8c0-2.8-0.2-2.1,1.5-4c1.5-1.5,2.9-3.1,4.4-4.6
		c0.4-0.4,0.9-0.7,1.2-1c-0.1-0.9-0.1-1.6-0.1-2.3c0-1.3,0.6-2.2,1.8-2.7c1.1-0.5,2.2-0.4,3.2,0.4c1.1,0.9,1.5,2.5,0.9,3.8
		c-0.5,1.2-1.8,2-3.1,1.9c-0.4,0-0.9-0.2-1.4-0.2c-0.4,0.4-0.8,0.7-1.1,1.1c-1.6,1.6-3.1,3.3-4.8,4.9c-0.8,0.8-1.1,1.7-1.1,2.8
		c0,5,0,10,0,15.1c0,1,0,2,0,3c0,0.7,0.2,1.2,0.7,1.7c0.3,0.3,0.6,0.7,1,1c5.4,5.6,10.8,11.2,16.2,16.8c0.3,0.3,0.5,0.6,0.8,0.9
		c0.5,0.5,0.7,1,0.7,1.7c0,0.5,0,1.1,0,1.6c0,20.3,0,40.6,0,61c0,2.9-0.3,2.1,1.7,4.2c6.3,6.6,12.7,13.1,19,19.7
		c0.2,0.2,0.5,0.5,0.7,0.7c0.4,0.4,0.6,0.8,0.5,1.4c0,0.6,0,1.2,0,1.8c0.4,46.9,0,93.8,0,140.6c0,12.8,0,25.6,0,38.4
		c0,0.8,0,1.5,0.1,2.2c0.5,0.4,0.9,0.7,1.3,1c1,0.9,1.3,2.3,0.8,3.5c-0.5,1.3-1.5,2-2.9,2c-1.3,0-2.4-0.7-2.9-2
		c-0.5-1.2-0.3-2.6,0.7-3.5c0.4-0.4,0.8-0.6,1.2-1c0.3-0.6,0.2-1.2,0.2-1.9c0-5.3,0-10.6,0-15.9c-0.1-37.3-0.1-74.6-0.2-111.9
		c0-8.5,0.1-16.9,0.1-25.4c0-0.6,0-1.3,0-1.9c-0.4-0.3-0.6-0.1-0.8,0.1c-1,1-2.1,2-3.1,3c-4.3,4.5-8.7,9-13,13.5
		c-0.2,0.2-0.5,0.5-0.7,0.7c-0.4,0.4-0.6,0.9-0.6,1.6c0,0.5,0,1.1,0,1.6c0,30.2,0,60.5,0,90.7c0,0.8,0,1.5,0,2.3
		c0.5,0.4,0.9,0.7,1.3,1c1.4,1.2,1.5,3.3,0.3,4.7c-1.2,1.4-3.3,1.4-4.5,0c-1.2-1.3-1.1-3.4,0.2-4.7c0.3-0.3,0.7-0.6,1.2-0.9
		c0-0.7,0.1-1.6,0.1-2.4c0-7.4,0-14.7,0-22.1c0-11.8,0-23.6,0-35.4c0-0.7,0.1-1.5-0.3-2.3c-0.3,0.3-0.6,0.4-0.9,0.7
		c-2.4,2.5-4.8,5-7.2,7.4c-0.5,0.5-0.8,1.1-0.8,1.9c0,0.4,0,0.8,0,1.2c0,11.9,0,23.8,0,35.7c0,0.8,0,1.5,0,2.3
		c0.4,0.3,0.8,0.6,1.1,0.9c1.1,1,1.5,2.4,1,3.8c-0.5,1.3-1.8,2.1-3.1,2c-1.4-0.1-2.5-1.2-2.8-2.6c-0.3-1.2,0.1-2.2,1-3
		c0.4-0.4,0.8-0.6,1.3-1c0-0.7,0-1.5,0-2.2c0-12,0-23.9,0-35.9c0-0.5,0-0.9,0-1.4c-0.1-1,0.3-1.8,1-2.5c2.7-2.8,5.4-5.6,8.1-8.4
		c1.5-1.5,1.5-1.1,1.5-3.7c0-8.9,0-17.9,0-26.8c0-2.9-0.2-2.2,1.7-4.2c4.5-4.7,9.1-9.4,13.6-14.1c1.2-1.3,2.4-2.6,3.6-3.9
		c0.5-0.5,0.7-1.1,0.7-1.9c0-2,0-4.1,0-6.1c0-4.7,0-9.3,0.1-14c0-1.1-0.3-2-1.1-2.8c-6.5-6.7-12.9-13.4-19.3-20.1
		c-0.5-0.5-1-1.1-1.5-1.6c0-0.8,0-1.6,0-2.3c0-20.3,0-40.5,0-60.8c0-0.4,0-0.8,0-1.2c0.1-1.1-0.3-2-1.1-2.8
		c-10.2-10.5-20.4-21.1-30.5-31.7c-0.7-0.8-1.5-1.6-2.5-2.3c-0.1,0.4-0.2,0.7-0.2,1c0,1,0,2,0,3c0,10.2,0.1,20.4,0.1,30.7
		c0,0.4,0,0.8,0,1.2c0,0.6,0.2,1.1,0.6,1.6c1,1.1,2,2.3,3.1,3.5c3.2,3.4,6.4,6.7,9.6,10c0.5,0.5,0.9,1,1.5,1.6c0,7,0,14.1,0,21.2
		c0.4,0.3,0.9,0.6,1.2,1c1.1,1,1.4,2.4,0.9,3.6c-0.5,1.4-1.7,2.1-3.2,2c-1.3-0.1-2.4-1.1-2.7-2.5c-0.3-1.2,0.1-2.2,0.9-3
		c0.4-0.4,0.8-0.6,1.3-1c0-0.5,0.1-1.1,0.1-1.7c0-5.8,0-11.6,0-17.3c0-0.4,0-0.7,0-1c-0.1-0.4-0.3-0.7-0.4-1.1
		c-0.1-0.2-0.3-0.3-0.5-0.5c-3.3-3.4-6.6-6.8-9.9-10.3c-0.7-0.7-1.4-1.3-2.2-2c-0.4,0.5-0.3,1-0.3,1.5c0,4.5,0,9,0,13.5
		c-0.1,11.3-0.1,22.7-0.2,34c0,2.5-0.1,2.1,1.4,3.7c2.8,3,5.7,6,8.6,8.9c6.2,6.5,12.5,13,18.7,19.4c0.5,0.5,1,1,1.5,1.5
		c0.6-0.1,1.1-0.2,1.7-0.2c1.3-0.1,2.6,0.9,3,2.1c0.4,1.4,0,2.9-1.2,3.7c-1.1,0.8-2.5,0.8-3.6-0.1c-0.8-0.6-1.2-1.5-1.2-2.6
		c0-0.6,0.1-1.2,0.2-1.9c-3-3.1-6-6.3-9.1-9.5c-0.1-0.1-0.4-0.2-0.5-0.3c-0.4,0.3-0.3,0.7-0.3,1c0,2.3,0,4.7,0,7
		c0.2,16.7,0,33.4,0,50.1c0,1.1-0.2,1.9-1,2.6c-0.9,0.8-1.8,1.8-2.6,2.7c-0.3,0.3-0.6,0.7-0.9,1c0.1,0.7,0.2,1.2,0.2,1.8
		c0,1.5-0.9,2.8-2.3,3.1c-1.5,0.3-2.9-0.3-3.6-1.7c-0.6-1.4-0.3-3,0.8-4c0.6-0.5,1.3-0.7,2-0.7c0.5,0,1,0.1,1.5,0.2
		c0.7-0.5,3.5-3.3,3.9-3.9c0.2-0.3,0.3-0.6,0.3-1c0.1-0.5,0-1,0-1.6c-0.2-19-0.2-38.1,0-57.1c0-0.3,0-0.6,0-0.9
		c0.1-0.7-0.2-1.2-0.7-1.7c-0.5-0.4-0.9-0.9-1.3-1.4c-5.2-5.4-10.3-10.7-15.5-16.1c-1.7-1.8-1.5-1.2-1.5-3.8
		c-0.3-34.9-0.2-69.7,0-104.6c0.1-8.2,0-16.5,0.1-24.7c0-0.3,0-0.6,0-0.9c0.1-1.1-0.3-1.9-1-2.6c-3-3.1-6-6.2-9-9.3
		c-0.3-0.3-0.5-0.6-0.8-0.9C128.7,11.3,129.6,11.3,130.5,11.3z"/>
	
		<linearGradient id="SVGID_2_" gradientUnits="userSpaceOnUse" x1="197.3922" y1="214.9664" x2="277.7002" y2="214.9664" gradientTransform="matrix(1.5274 4.753382e-05 4.753382e-05 1.4824 -113.4721 -37.2385)">
		<stop  offset="0" style="stop-color:#B2E3F5"/>
		<stop  offset="0.5657" style="stop-color:#0015CD"/>
		<stop  offset="0.6765" style="stop-color:#0015CD"/>
	</linearGradient>
	<path class="st2" d="M190.7,1.9c-0.4,0.7-0.5,1.5-0.5,2.3c0,7.3,0,14.7,0,22c0,1.1,0.3,2,1.2,2.7c0.4,0.3,0.7,0.7,1.1,1.1
		C211,48,229.5,66,248.1,84c2.6,2.5,2.1,1.6,2.1,4.9c0,22.3,0,44.6-0.1,66.8c0,0.9,0,1.9,0,2.7c0.7,0.5,1.4,0.9,1.9,1.4
		c1.3,1.3,1.6,3.3,0.7,4.8c-1,1.6-2.9,2.3-4.6,1.9c-1.8-0.5-3.1-2.1-3.1-3.8c0-1.2,0.5-2.3,1.5-3.1c0.5-0.4,1-0.7,1.5-1
		c0.3-0.8,0.2-1.7,0.2-2.6c0-8.7,0-17.4,0-26.1c0-13.4,0-26.7,0-40.1c0-0.4,0-0.9,0-1.3c0.1-1.3-0.4-2.2-1.3-3.1
		c-10.3-10-20.6-20-30.9-30c-0.5-0.5-1-0.9-1.6-1.4c-0.2,0.5-0.4,0.8-0.4,1.1c-0.1,0.6,0,1.3,0,2c0,24.6-0.1,49.2-0.1,73.8
		c0,3.1-0.3,2.4,1.9,4.5c4.7,4.6,9.5,9.3,14.3,13.9c1.1,1,1.6,2.1,1.6,3.6c-0.1,4.6,0,9.1,0,13.7c0,0.7,0,1.5,0,2.2
		c0,1,0.3,1.8,1.1,2.5c0.5,0.4,1,0.9,1.4,1.4c10.7,10.4,21.4,20.9,32.2,31.3c2.1,2,1.8,1.5,1.8,4.1c0,29.2-0.1,58.5-0.1,87.7
		c0,0.4,0,0.7,0,1.1c0,0.8-0.2,1.4-0.8,1.9c-0.4,0.3-0.7,0.7-1.1,1.1c-4.9,4.7-9.7,9.4-14.6,14.2c-1.5,1.4-2.9,2.9-4.3,4.4
		c-0.5,0.5-0.8,1.1-0.7,1.8c0,0.4,0,0.9,0,1.3c0.1,9.8,0.1,19.6,0.1,29.4c0,1.5,0.4,2.6,1.5,3.7c1.6,1.5,3,3.2,4.6,4.7
		c8.9,8.6,17.8,17.2,26.7,25.8c0.1,0.1,0.1,0.1,0.2,0.2c1.3,0.9,1.7,2.2,1.7,3.8c0.3,36.5,0.4,73,0,109.5
		c-0.1,9.6-0.1,19.2-0.2,28.7c0,0.6,0,1.2,0,1.7c-0.1,0.9,0.3,1.7,1,2.3c0.3,0.2,0.5,0.5,0.8,0.8c6.7,6.5,13.4,13,20.1,19.6
		c0.5,0.5,1,0.9,1.5,1.3c0.7-0.1,1.4-0.2,2-0.3c2.4-0.1,4.4,1.7,4.4,4c0,2.3-1.9,4.2-4.3,4.1c-2.3-0.1-4.2-2-4.1-4.3
		c0-0.6,0.2-1.1,0.3-1.7c-0.2-0.8-0.9-1.3-1.5-1.8c-6.8-6.6-13.5-13.1-20.3-19.7c-2.2-2.1-2-1.5-2-4.7c-0.1-24.7-0.4-49.5-0.4-74.2
		c0-15.7,0.2-31.3,0.3-47c0-5.8,0-11.6,0.1-17.4c0-1.5-0.5-2.6-1.5-3.6c-5.9-5.7-11.8-11.5-17.7-17.3c-3-2.9-6-5.9-9-8.8
		c-0.9-0.9-1.9-1.7-2.8-2.5c-0.3-0.2-0.6-0.4-1-0.6c-0.4,0.7-0.3,1.4-0.3,2c-0.1,11.6-0.2,23.2-0.3,34.8
		c-0.1,25.1-0.2,50.2-0.4,75.3c0,3.7,0.3,2.7-2.2,5.3c-2.6,2.5-5.2,5-7.8,7.5c-0.5,0.5-1,1-1.5,1.6c0.1,0.8,0.2,1.5,0.2,2.2
		c0,2.4-1.9,4.1-4.3,4c-2.3-0.1-4.1-2-4-4.2c0.1-2.3,2.2-4.1,4.5-3.9c0.6,0,1.2,0.2,1.8,0.3c0.4-0.3,0.8-0.6,1.2-1
		c2.9-2.8,5.8-5.7,8.7-8.4c0.9-0.9,1.4-1.8,1.3-3.1c0-0.9,0-1.7,0-2.6c-0.1-35.5-0.2-71-0.3-106.5c0-13.4,0.1-26.7,0.2-40.1
		c0-0.4,0-0.7,0-1.1c-0.1-0.9,0.3-1.5,0.9-2.1c0.3-0.3,0.6-0.6,1-0.9c6.2-6,12.5-11.9,18.7-17.8c1.1-1,1.5-2,1.5-3.4
		c0-14.7,0-29.3,0-44c0-5.1,0-10.2,0-15.2c0-0.6-0.1-1.3-0.1-2.1c-0.5,0.2-0.8,0.3-1,0.4c-0.4,0.3-0.7,0.6-1,0.9
		c-5.2,5-10.4,10.1-15.6,15.1c-1,1-1.6,2-1.5,3.4c0.1,2.2,0,4.5,0,6.7c0,9.2,0,18.4,0,27.7c0,0.9,0,1.7,0,2.6
		c0.7,0.5,1.3,0.9,1.8,1.5c2.5,2.6,0.8,6.1-1.8,6.8c-2.3,0.6-4.7-0.8-5.1-3c-0.3-1.7,0.1-3.2,1.6-4.3c0.4-0.3,0.8-0.6,1.3-1
		c0-0.9,0.1-1.9,0.1-2.8c0-11.5,0.1-22.9,0.1-34.4c0-2.9-0.2-2.3,1.9-4.3c5.7-5.5,11.3-11,17-16.5c0.4-0.4,0.7-0.8,1.1-1.1
		c1-0.8,1.3-1.8,1.3-3.1c0-6.7,0-13.5,0-20.2c0-1.4-0.5-2.3-1.4-3.2c-10.3-10-20.6-20-30.9-30c-0.5-0.5-0.9-1.2-1.7-1.3
		c-0.6,0.6-0.4,1.4-0.4,2.1c0,2.5,0,4.9,0,7.4c0,3.9,0,7.8,0,11.8c0,3.8-0.1,2.9,2.2,5.3c0.8,0.8,1.7,1.6,2.6,2.4
		c0.7-0.1,1.4-0.3,2-0.3c1.8-0.1,3.5,1.1,4.1,2.7c0.7,1.9-0.3,3.8-1.6,4.6c-1.5,1-3.6,0.9-5-0.3c-0.9-0.7-1.4-1.7-1.4-2.9
		c0-0.7,0.1-1.4,0.2-2.4c-0.3-0.3-0.6-0.8-1-1.2c-1.1-1.1-2.2-2.2-3.3-3.2c-0.6-0.5-0.9-1.2-0.8-1.9c0-0.7,0-1.3,0-2
		c0-13.9,0-27.7,0-41.6c0-2.9,0.3-2.4-1.9-4.6c-4.6-4.5-9.2-8.9-13.8-13.4c-0.4-0.4-0.7-0.7-1.1-1.1c-0.7-0.6-1.1-1.3-1-2.3
		c0.1-0.6,0-1.3,0-2c0-25.5,0.1-51.1,0.1-76.6c0-3.3,0.4-2.5-2.1-4.9c-6.4-6.3-12.9-12.5-19.3-18.8c-0.5-0.5-0.9-0.9-1.4-1.4
		c-0.5-0.5-0.7-1.1-0.7-1.8c0-0.7,0-1.3,0-2c0-6.7,0-13.5,0-20.2c0-1.2-0.2-2.3-0.3-3.5C188.9,1.9,189.8,1.9,190.7,1.9z"/>
	<linearGradient id="SVGID_3_" gradientUnits="userSpaceOnUse" x1="163.1252" y1="27.4953" x2="182.9831" y2="115.3285">
		<stop  offset="0" style="stop-color:#7D7D7D;stop-opacity:0"/>
		<stop  offset="0.9649" style="stop-color:#C6C6C6"/>
	</linearGradient>
	<path class="st3" d="M159.1,25.2c0,0.6-0.1,1.2-0.1,1.8c0,5.7,0,11.4,0,17.1c0,0.3,0,0.6,0,0.9c0.1,0.3,0.2,0.6,0.4,0.8
		c0.3,0.3,0.7,0.6,1,0.9c6.5,5.6,12.9,11.2,19.4,16.8c0.3,0.2,0.6,0.5,0.8,0.7c0.4,0.3,0.6,0.7,0.6,1.1c0,0.5,0,0.9,0,1.4
		c0,15.3,0,30.6,0,45.8c0,0.6,0.1,1.3,0.1,1.8c0.4,0.3,0.8,0.5,1.1,0.7c0.8,0.7,1.1,1.5,0.7,2.4c-0.4,0.9-1.3,1.5-2.4,1.6
		c-1.1,0-2-0.4-2.5-1.3c-0.6-0.9-0.3-2.1,0.6-2.8c0.3-0.2,0.7-0.4,1.1-0.7c0-0.5,0-1.1,0-1.6c0-13.5,0-27.1,0-40.6
		c0-1.9,0-3.8,0-5.7c0-0.9-0.3-1.5-1-2.1c-6.4-5.5-12.7-10.9-19-16.4c-0.8-0.7-1.5-1.3-2.3-2c0-0.5,0-1,0-1.6c0-5.7,0-11.3,0-17
		c0-0.7,0-1.4-0.1-2.2C158.1,25.2,158.6,25.2,159.1,25.2z"/>
	<linearGradient id="SVGID_4_" gradientUnits="userSpaceOnUse" x1="258.1205" y1="5.6166" x2="276.4509" y2="105.67">
		<stop  offset="0" style="stop-color:#B2E3F5"/>
		<stop  offset="0.5657" style="stop-color:#0015CD"/>
		<stop  offset="0.6765" style="stop-color:#0015CD"/>
	</linearGradient>
	<path class="st4" d="M251.1,1.7c-0.3,0.5-0.3,1-0.3,1.6c0,0.9,0,1.8,0,2.6c0,11.3,0,22.6,0,33.9c0,0.4,0,0.9,0,1.3
		c0,0.6,0.2,1,0.6,1.4c0.2,0.2,0.3,0.3,0.5,0.5c4.9,4.9,9.8,9.7,14.7,14.6c6.4,6.4,12.8,12.8,19.2,19.2c0.7,0.7,0.9,1.4,0.9,2.3
		c0,6.9,0,13.7,0,20.6c0,0.4,0,0.8,0,1.2c-0.1,0.9,0.1,1.5,1,2.1c1.6,1,1.5,3.8-0.6,4.6c-1.1,0.4-2.4,0-3.1-0.9
		c-0.6-0.9-0.6-2.3,0-3.2c0.2-0.2,0.4-0.5,0.6-0.6c0.8-0.4,0.9-1,0.9-1.8c0-7.2,0-14.4,0-21.6c0-0.9-0.3-1.5-0.9-2.1
		c-5.2-5.2-10.4-10.4-15.6-15.6c-6.1-6.1-12.2-12.2-18.3-18.3c-0.8-0.8-1.1-1.6-1.1-2.7c0-7.2,0-14.5,0-21.7c0-5.1,0-10.2,0-15.3
		c0-0.8-0.1-1.5-0.2-2.3C249.9,1.7,250.5,1.7,251.1,1.7z"/>
	
		<linearGradient id="SVGID_5_" gradientUnits="userSpaceOnUse" x1="-383.4812" y1="528.3208" x2="-349.9685" y2="528.3208" gradientTransform="matrix(6.123234e-17 1 -1 6.123234e-17 566.1591 384.8709)">
		<stop  offset="0.1047" style="stop-color:#8CD5F0"/>
		<stop  offset="0.2659" style="stop-color:#629BE5"/>
		<stop  offset="0.4209" style="stop-color:#3F6BDD"/>
		<stop  offset="0.5669" style="stop-color:#2346D6"/>
		<stop  offset="0.7019" style="stop-color:#102BD1"/>
		<stop  offset="0.8217" style="stop-color:#041BCE"/>
		<stop  offset="0.914" style="stop-color:#0015CD"/>
	</linearGradient>
	<path class="st5" d="M38.6,1.4c-0.1,0.9-0.2,1.8-0.2,2.8c0,7.1,0,14.1,0,21.2c0,0.7,0,1.3,0.1,2c0.4,0.4,0.7,0.7,1,1.1
		c0.9,1.1,1,2.5,0.7,4c-0.2,1.3-1.2,2.3-2.1,2.4c-1,0.1-1.8-0.6-2.4-1.9c-0.5-1.4-0.3-3.3,0.5-4.4c0.2-0.3,0.4-0.5,0.7-0.7
		c0.4-0.3,0.5-0.8,0.5-1.3c0-0.3,0-0.7,0-1c0-7.2,0-14.4,0-21.6c0-0.9,0-1.7-0.3-2.5C37.5,1.4,38.1,1.4,38.6,1.4z"/>
	
		<linearGradient id="SVGID_6_" gradientUnits="userSpaceOnUse" x1="-413.7644" y1="377.7714" x2="-398.8441" y2="377.7714" gradientTransform="matrix(-6.123234e-17 1 -1 -6.123234e-17 598.8611 417.5726)">
		<stop  offset="0.1047" style="stop-color:#8CD5F0"/>
		<stop  offset="0.2659" style="stop-color:#629BE5"/>
		<stop  offset="0.4209" style="stop-color:#3F6BDD"/>
		<stop  offset="0.5669" style="stop-color:#2346D6"/>
		<stop  offset="0.7019" style="stop-color:#102BD1"/>
		<stop  offset="0.8217" style="stop-color:#041BCE"/>
		<stop  offset="0.914" style="stop-color:#0015CD"/>
	</linearGradient>
	<path class="st6" d="M222,3.8c-0.1,0.5-0.3,0.9-0.3,1.4c0,2.3,0,4.7,0,7c0,0.7,0.2,1.2,0.8,1.5c0.9,0.5,1.2,1.3,1.2,2.3
		c0,1.5-1.4,2.6-2.6,2.6c-1.5,0-2.6-1.1-2.7-2.6c0-0.9,0.3-1.7,1-2.3c0.3-0.2,0.6-0.4,0.9-0.6c0-0.5,0.1-1,0.1-1.6c0-2,0-3.9,0-5.9
		c0-0.7-0.1-1.4-0.2-2C220.8,3.8,221.4,3.8,222,3.8z"/>
	<linearGradient id="SVGID_7_" gradientUnits="userSpaceOnUse" x1="78.0575" y1="250.3784" x2="78.6599" y2="250.3784">
		<stop  offset="0.1047" style="stop-color:#8CD5F0"/>
		<stop  offset="0.2659" style="stop-color:#629BE5"/>
		<stop  offset="0.4209" style="stop-color:#3F6BDD"/>
		<stop  offset="0.5669" style="stop-color:#2346D6"/>
		<stop  offset="0.7019" style="stop-color:#102BD1"/>
		<stop  offset="0.8217" style="stop-color:#041BCE"/>
		<stop  offset="0.914" style="stop-color:#0015CD"/>
	</linearGradient>
	<path class="st7" d="M78.7,250.2c-0.2,0.1-0.4,0.2-0.6,0.3c0.1-0.1-0.1-0.3,0.1-0.3C78.4,250.2,78.5,250.2,78.7,250.2z"/>
	<linearGradient id="SVGID_8_" gradientUnits="userSpaceOnUse" x1="109.3564" y1="12.8227" x2="105.5375" y2="290.8338">
		<stop  offset="0" style="stop-color:#7D7D7D;stop-opacity:0"/>
		<stop  offset="0.2237" style="stop-color:#979797;stop-opacity:0.2319"/>
		<stop  offset="0.5082" style="stop-color:#B1B1B1;stop-opacity:0.5267"/>
		<stop  offset="0.7641" style="stop-color:#C0C0C0;stop-opacity:0.7919"/>
		<stop  offset="0.9649" style="stop-color:#C6C6C6"/>
	</linearGradient>
	<path class="st8" d="M136.7,13.7c0,0.5-0.3,0.9-0.7,1.2c-1.8,1.5-3.6,3.1-5.4,4.6c-0.5,0.4-1,0.9-1.6,1.3c-0.4,0.3-0.6,0.7-0.5,1.1
		c0,0.4,0,0.8,0,1.1c0,8.4-0.1,16.8-0.1,25.1c0,0.3,0,0.5,0,0.8c0.1,0.9-0.3,1.6-1.1,2.2c-3.7,3.1-7.3,6.3-11,9.5
		c-0.2,0.2-0.5,0.3-0.8,0.5c-0.4-0.3-0.3-0.7-0.3-1c0-2.1,0-4.2,0-6.3c0-1.6,0-3.3,0-4.9c0-2,0.2-1.5-1.3-2.9
		c-1.3-1.1-2.6-2.2-3.8-3.3c-0.3-0.3-0.8-0.5-1.1-0.7c0-0.7,0.1-1.2,0.1-1.7c0-0.9-0.6-1.6-1.5-2c-1-0.4-1.9-0.3-2.8,0.3
		c-0.9,0.6-1.3,1.8-0.8,2.7c0.5,0.9,1.6,1.5,2.7,1.4c0.4,0,0.8-0.1,1.2-0.2c0.3,0.3,0.7,0.5,1,0.8c1.4,1.2,2.7,2.4,4.2,3.6
		c0.7,0.6,1,1.2,1,2c0,3.6,0,7.2,0,10.9c0,0.7,0,1.4,0,2.1c0,0.5-0.2,0.9-0.6,1.2c-0.3,0.2-0.6,0.5-0.8,0.7
		c-4.7,4.1-9.4,8.1-14.1,12.2c-0.2,0.2-0.5,0.4-0.7,0.6c-0.4,0.3-0.6,0.7-0.6,1.2c0,0.4,0,0.8,0,1.1c0,14.7,0,29.3,0,44
		c0,2.1,0.3,1.5-1.5,3.1c-5.5,4.7-11,9.5-16.5,14.2c-0.2,0.2-0.4,0.4-0.6,0.5c-0.4,0.3-0.5,0.6-0.5,1c0,0.4,0,0.8,0,1.3
		c-0.3,33.8,0,67.7,0,101.5c0,9.2,0,18.5,0,27.7c0,0.5,0,1.1,0,1.6c-0.4,0.3-0.8,0.5-1.1,0.7c-0.8,0.7-1.1,1.7-0.7,2.5
		c0.4,0.9,1.3,1.5,2.5,1.5c1.2,0,2.1-0.5,2.5-1.4c0.4-0.9,0.2-1.9-0.6-2.6c-0.3-0.3-0.7-0.5-1.1-0.7c-0.2-0.4-0.1-0.9-0.1-1.3
		c0-3.8,0-7.7,0-11.5c0.1-26.9,0.1-53.8,0.2-80.8c0-6.1,0-12.2-0.1-18.3c0-0.5,0-0.9,0-1.3c0.3-0.2,0.5-0.1,0.7,0.1
		c0.9,0.7,1.8,1.4,2.7,2.2c3.8,3.2,7.5,6.5,11.3,9.7c0.2,0.2,0.4,0.4,0.6,0.5c0.4,0.3,0.6,0.7,0.5,1.1c0,0.4,0,0.8,0,1.1
		c0,21.8,0,43.6,0,65.5c0,0.5,0,1.1,0,1.6c-0.4,0.3-0.8,0.5-1.1,0.7c-1.2,0.9-1.3,2.4-0.2,3.4c1.1,1,2.9,1,3.9,0
		c1.1-1,1-2.5-0.2-3.4c-0.3-0.2-0.6-0.4-1-0.7c0-0.5-0.1-1.1-0.1-1.7c0-5.3,0-10.6,0-15.9c0-8.5,0-17,0-25.5c0-0.5-0.1-1.1,0.2-1.7
		c0.3,0.2,0.6,0.3,0.8,0.5c2.1,1.8,4.2,3.6,6.2,5.4c0.4,0.4,0.7,0.8,0.7,1.3c0,0.3,0,0.6,0,0.9c0,8.6,0,17.2,0,25.8
		c0,0.5,0,1.1,0,1.6c-0.4,0.2-0.7,0.4-1,0.6c-1,0.7-1.3,1.8-0.8,2.7c0.5,0.9,1.6,1.5,2.7,1.4c1.2-0.1,2.2-0.8,2.5-1.9
		c0.2-0.9-0.1-1.6-0.8-2.2c-0.3-0.3-0.7-0.5-1.1-0.7c0-0.5,0-1.1,0-1.6c0-8.6,0-17.3,0-25.9c0-0.3,0-0.7,0-1
		c0.1-0.7-0.3-1.3-0.9-1.8c-2.4-2-4.7-4-7.1-6.1c-1.3-1.1-1.3-0.8-1.3-2.6c0-6.4,0-12.9,0-19.3c0-2.1,0.2-1.6-1.5-3.1
		c-3.9-3.4-7.9-6.8-11.8-10.2c-1.1-0.9-2.1-1.9-3.2-2.8c-0.4-0.4-0.6-0.8-0.6-1.4c0-1.5,0-2.9,0-4.4c0-3.4,0-6.7-0.1-10.1
		c0-0.8,0.3-1.4,0.9-2c5.6-4.8,11.2-9.6,16.8-14.5c0.4-0.4,0.9-0.8,1.3-1.2c0-0.6,0-1.1,0-1.7c0-14.6,0-29.2,0-43.9
		c0-0.3,0-0.6,0-0.9c-0.1-0.8,0.3-1.4,1-2c8.9-7.6,17.7-15.2,26.6-22.9c0.7-0.6,1.3-1.1,2.1-1.7c0.1,0.3,0.2,0.5,0.2,0.7
		c0,0.7,0,1.4,0,2.1c0,7.4-0.1,14.7-0.1,22.1c0,0.3,0,0.6,0,0.9c0,0.4-0.1,0.8-0.5,1.1c-0.9,0.8-1.8,1.7-2.7,2.5
		c-2.8,2.4-5.6,4.8-8.4,7.2c-0.4,0.4-0.8,0.7-1.3,1.1c0,5.1,0,10.2,0,15.3c-0.4,0.2-0.7,0.4-1.1,0.7c-0.9,0.7-1.2,1.7-0.8,2.6
		c0.5,1,1.5,1.5,2.8,1.4c1.2-0.1,2.1-0.8,2.4-1.8c0.2-0.9-0.1-1.6-0.8-2.2c-0.3-0.3-0.7-0.5-1.1-0.7c0-0.4-0.1-0.8-0.1-1.2
		c0-4.2,0-8.3,0-12.5c0-0.3,0-0.5,0-0.8c0.1-0.3,0.2-0.5,0.4-0.8c0.1-0.1,0.3-0.2,0.4-0.4c2.9-2.5,5.8-4.9,8.6-7.4
		c0.6-0.5,1.2-1,1.9-1.4c0.3,0.4,0.2,0.7,0.2,1.1c0,3.2,0,6.5,0,9.7c0,8.2,0.1,16.3,0.2,24.5c0,1.8,0.1,1.5-1.2,2.7
		c-2.5,2.2-5,4.3-7.5,6.4c-5.4,4.7-10.9,9.4-16.3,14c-0.4,0.4-0.8,0.7-1.3,1.1c-0.5-0.1-1-0.2-1.5-0.2c-1.2,0-2.3,0.6-2.6,1.5
		c-0.4,1,0,2.1,1,2.7c1,0.6,2.2,0.6,3.2-0.1c0.7-0.5,1.1-1.1,1-1.9c0-0.4-0.1-0.8-0.1-1.3c2.6-2.3,5.3-4.6,8-6.8
		c0.1-0.1,0.3-0.2,0.4-0.2c0.4,0.2,0.3,0.5,0.3,0.7c0,1.7,0,3.4,0,5.1c-0.2,12,0,24.1,0,36.1c0,0.8,0.2,1.4,0.9,1.9
		c0.8,0.6,1.5,1.3,2.3,1.9c0.3,0.2,0.5,0.5,0.7,0.7c-0.1,0.5-0.1,0.9-0.1,1.3c0,1.1,0.8,2,2,2.2c1.3,0.2,2.6-0.2,3.1-1.2
		c0.6-1,0.2-2.2-0.7-2.9c-0.5-0.4-1.1-0.5-1.8-0.5c-0.4,0-0.9,0.1-1.3,0.1c-0.6-0.4-3.1-2.4-3.4-2.8c-0.2-0.2-0.3-0.5-0.3-0.7
		c0-0.4,0-0.8,0-1.1c0.1-13.7,0.2-27.5,0-41.2c0-0.2,0-0.4,0-0.6c-0.1-0.5,0.2-0.9,0.6-1.2c0.4-0.3,0.8-0.7,1.1-1
		c4.5-3.9,9-7.7,13.5-11.6c1.5-1.3,1.3-0.9,1.3-2.7c0.2-25.1,0.2-50.3,0-75.4c0-5.9,0-11.9-0.1-17.8c0-0.2,0-0.4,0-0.6
		c-0.1-0.8,0.3-1.4,0.9-1.9c2.6-2.2,5.2-4.5,7.8-6.7c0.2-0.2,0.5-0.4,0.7-0.7C138.3,13.7,137.5,13.7,136.7,13.7z"/>
	<linearGradient id="SVGID_9_" gradientUnits="userSpaceOnUse" x1="160.8151" y1="288.3166" x2="157.76" y2="286.7891">
		<stop  offset="0" style="stop-color:#B2E3F5"/>
		<stop  offset="0.5657" style="stop-color:#707070"/>
	</linearGradient>
	<path class="st9" d="M98.1,8.9c0.3,0.6,0.4,1.2,0.4,1.9c0,5.9,0,11.9,0,17.8c0,0.9-0.2,1.6-0.9,2.2c-0.3,0.3-0.6,0.6-0.9,0.9
		C82.4,46.1,68,60.7,53.7,75.3c-2,2-1.6,1.3-1.6,4c0,18,0,36,0,54c0,0.8,0,1.5,0,2.2c-0.6,0.4-1,0.7-1.5,1.1c-1,1-1.2,2.6-0.5,3.9
		c0.7,1.3,2.2,1.9,3.6,1.5c1.4-0.4,2.4-1.7,2.4-3.1c0-1-0.4-1.8-1.1-2.5c-0.3-0.3-0.7-0.6-1.1-0.8c-0.2-0.7-0.1-1.4-0.2-2.1
		c0-7,0-14.1,0-21.1c0-10.8,0-21.6,0-32.4c0-0.4,0-0.7,0-1.1c-0.1-1,0.3-1.8,1-2.5c8-8.1,16-16.2,23.9-24.3c0.4-0.4,0.8-0.7,1.3-1.2
		c0.2,0.4,0.3,0.6,0.3,0.9c0,0.5,0,1.1,0,1.6c0,19.9,0,39.8,0.1,59.7c0,2.5,0.2,1.9-1.5,3.7c-3.7,3.7-7.3,7.5-11.1,11.2
		c-0.8,0.8-1.2,1.7-1.2,2.9c0.1,3.7,0,7.4,0,11.1c0,0.6,0,1.2,0,1.8c0,0.8-0.2,1.5-0.8,2c-0.4,0.3-0.7,0.7-1.1,1.1
		c-8.3,8.4-16.6,16.9-24.9,25.3c-1.6,1.6-1.4,1.2-1.4,3.4c0,23.6,0,47.3,0.1,70.9c0,0.3,0,0.6,0,0.9c0,0.6,0.2,1.1,0.6,1.6
		c0.3,0.3,0.6,0.6,0.9,0.9c3.8,3.8,7.5,7.6,11.3,11.4c1.1,1.2,2.2,2.4,3.4,3.6c0.4,0.4,0.6,0.9,0.6,1.4c0,0.4,0,0.7,0,1.1
		c0,7.9-0.1,15.8-0.1,23.8c0,1.2-0.3,2.1-1.1,3c-1.2,1.2-2.4,2.6-3.6,3.8c-6.9,7-13.8,13.9-20.7,20.9c0,0-0.1,0.1-0.1,0.1
		c-1,0.8-1.3,1.8-1.3,3.1c-0.2,29.5-0.3,59,0,88.5c0.1,7.7,0.1,15.5,0.2,23.2c0,0.5,0,0.9,0,1.4c0,0.8-0.2,1.4-0.8,1.9
		c-0.2,0.2-0.4,0.4-0.6,0.6c-5.2,5.3-10.4,10.5-15.6,15.8c-0.4,0.4-0.8,0.7-1.1,1.1c-0.6-0.1-1.1-0.2-1.6-0.2
		c-1.9-0.1-3.4,1.4-3.4,3.2c0,1.9,1.5,3.4,3.3,3.3c1.8,0,3.3-1.6,3.2-3.5c0-0.5-0.1-0.9-0.2-1.4c0.2-0.6,0.7-1,1.2-1.5
		c5.2-5.3,10.5-10.6,15.7-15.9c1.7-1.7,1.6-1.2,1.6-3.8c0.1-20,0.3-40,0.3-60c0-12.7-0.2-25.3-0.2-38c0-4.7,0-9.4-0.1-14.1
		c0-1.2,0.4-2.1,1.2-2.9c4.6-4.6,9.2-9.3,13.7-14c2.3-2.4,4.7-4.7,7-7.1c0.7-0.7,1.4-1.4,2.2-2c0.2-0.2,0.5-0.3,0.8-0.5
		c0.3,0.6,0.2,1.1,0.2,1.6c0.1,9.4,0.2,18.8,0.2,28.2c0.1,20.3,0.2,40.6,0.3,60.9c0,3-0.3,2.2,1.7,4.3c2,2,4,4.1,6,6.1
		c0.4,0.4,0.8,0.8,1.2,1.3c-0.1,0.6-0.2,1.2-0.2,1.8c0,1.9,1.4,3.3,3.3,3.3c1.8-0.1,3.2-1.6,3.1-3.4c-0.1-1.8-1.7-3.3-3.5-3.1
		c-0.5,0-0.9,0.2-1.4,0.3c-0.3-0.3-0.6-0.5-0.9-0.8c-2.3-2.3-4.5-4.6-6.8-6.8c-0.7-0.7-1.1-1.5-1-2.5c0-0.7,0-1.4,0-2.1
		c0.1-28.7,0.2-57.4,0.2-86.1c0-10.8-0.1-21.6-0.1-32.4c0-0.3,0-0.6,0-0.9c0-0.7-0.2-1.3-0.7-1.7c-0.3-0.2-0.5-0.5-0.7-0.7
		c-4.8-4.8-9.7-9.6-14.5-14.4c-0.8-0.8-1.1-1.6-1.1-2.8c0-11.9,0-23.7,0-35.6c0-4.1,0-8.2,0-12.3c0-0.5,0-1,0.1-1.7
		c0.4,0.1,0.6,0.2,0.8,0.4c0.3,0.2,0.5,0.5,0.8,0.7c4,4.1,8,8.1,12.1,12.2c0.8,0.8,1.3,1.6,1.2,2.8c-0.1,1.8,0,3.6,0,5.5
		c0,7.5,0,14.9,0,22.4c0,0.7,0,1.4,0,2.1c-0.5,0.4-1,0.8-1.4,1.2c-2,2.1-0.6,4.9,1.4,5.5c1.8,0.5,3.6-0.6,4-2.4
		c0.2-1.4-0.1-2.6-1.2-3.4c-0.3-0.2-0.6-0.5-1-0.8c0-0.7-0.1-1.5-0.1-2.3c0-9.3-0.1-18.5-0.1-27.8c0-2.4,0.2-1.9-1.4-3.5
		c-4.4-4.4-8.8-8.9-13.2-13.3c-0.3-0.3-0.5-0.6-0.9-0.9c-0.8-0.6-1-1.5-1-2.5c0-5.5,0-10.9,0-16.4c0-1.1,0.4-1.9,1.1-2.6
		c8-8.1,16-16.2,24-24.3c0.4-0.4,0.7-0.9,1.3-1.1c0.5,0.5,0.3,1.1,0.3,1.7c0,2,0,4,0,6c0,3.2,0,6.3,0,9.5c0,3.1,0.1,2.4-1.7,4.3
		c-0.6,0.7-1.3,1.3-2,2c-0.6-0.1-1.1-0.2-1.6-0.3c-1.4-0.1-2.7,0.9-3.2,2.2c-0.5,1.5,0.2,3,1.2,3.7c1.2,0.8,2.8,0.7,3.9-0.2
		c0.7-0.6,1.1-1.4,1.1-2.3c0-0.6-0.1-1.2-0.2-1.9c0.2-0.2,0.5-0.6,0.8-1c0.8-0.9,1.7-1.8,2.6-2.6c0.4-0.4,0.7-0.9,0.6-1.6
		c0-0.5,0-1.1,0-1.6c0-11.2,0-22.4,0-33.6c0-2.4-0.2-1.9,1.5-3.7c3.5-3.6,7.1-7.2,10.7-10.8c0.3-0.3,0.6-0.6,0.9-0.9
		c0.6-0.5,0.8-1.1,0.8-1.9c0-0.5,0-1.1,0-1.6c0-20.7-0.1-41.3-0.1-62c0-2.7-0.3-2,1.6-4c5-5.1,10-10.1,15-15.2
		c0.4-0.4,0.7-0.8,1.1-1.1c0.4-0.4,0.6-0.9,0.6-1.4c0-0.5,0-1.1,0-1.6c0-5.5,0-10.9,0-16.4c0-0.9,0.1-1.9,0.2-2.8
		C99.5,8.9,98.8,8.9,98.1,8.9z"/>
	<linearGradient id="SVGID_10_" gradientUnits="userSpaceOnUse" x1="133.057" y1="13.4828" x2="138.1264" y2="496.0851">
		<stop  offset="0.1047" style="stop-color:#8CD5F0"/>
		<stop  offset="0.2659" style="stop-color:#629BE5"/>
		<stop  offset="0.4209" style="stop-color:#3F6BDD"/>
		<stop  offset="0.5669" style="stop-color:#2346D6"/>
		<stop  offset="0.7019" style="stop-color:#102BD1"/>
		<stop  offset="0.8217" style="stop-color:#041BCE"/>
		<stop  offset="0.914" style="stop-color:#0015CD"/>
	</linearGradient>
	<path class="st10" d="M126.3,0c-1,0.9-1,2-1,3.2c0,7.9,0,15.7,0,23.6c0,11.2,0,22.4,0,33.5c0,3.1-0.1,2.5,1.8,4.4
		c8.9,9.2,17.9,18.4,26.8,27.6c1.6,1.7,3.2,3.3,4.9,4.9c0.9,0.8,1.2,1.7,1.2,2.9c0,6.6,0.1,13.3,0,19.9c0,34.1-0.1,68.2-0.2,102.4
		c0,13.2-0.1,26.4-0.1,39.6c0,0.1,0,0.3,0,0.4c0,2.6,0,2.2,1.5,3.7c11.5,11.9,23,23.7,34.6,35.6c1.6,1.7,3.2,3.3,4.9,4.9
		c0.9,0.9,1.3,1.8,1.3,3.1c0,12.3,0.1,24.6,0.1,36.8c0,28.5-0.1,57.1-0.2,85.6c0,0.9,0,1.8,0,2.7c0.6,0.5,1.1,0.8,1.5,1.3
		c1,1,1.4,2.6,0.8,3.9c-0.6,1.4-1.6,2.1-3.1,2.2c-1.5,0.1-2.6-0.6-3.2-1.9c-0.7-1.4-0.4-3.2,0.7-4.3c0.3-0.3,0.6-0.5,0.9-0.7
		c0.4-0.3,0.6-0.7,0.6-1.1c0-0.6,0-1.3,0-1.9c-0.1-22.4-0.3-44.8-0.3-67.3c0-17.2,0.1-34.4,0.2-51.7c0-1.2,0-2.3,0-3.5
		c0-0.8-0.2-1.4-0.8-1.9c-0.9-0.9-1.7-1.9-2.6-2.8c-7.9-8.1-15.8-16.3-23.7-24.4c-0.4-0.4-0.8-0.8-1.2-1.1c-0.6,0.2-0.5,0.7-0.5,1
		c0,2.2,0,4.4,0,6.6c0,3.6,0,7.3,0,10.9c0,1.1,0.4,1.9,1.1,2.7c5.5,5.6,10.9,11.2,16.4,16.8c1.8,1.9,1.7,1.3,1.7,4.1
		c0,8.4,0,16.8,0,25.2c0,0.5,0,1,0,1.6c0,0.9,0.2,1.6,1,2.1c1.1,0.7,1.6,1.8,1.6,3.1c0,1.7-1,3-2.6,3.4c-1.5,0.4-3.1-0.3-3.9-1.7
		c-0.7-1.4-0.5-3.2,0.6-4.3c0.5-0.4,1-0.8,1.6-1.2c0-0.6,0.1-1.3,0.1-1.9c0-8.6,0-17.2,0-25.7c0-1.3-0.4-2.3-1.3-3.3
		c-5.4-5.5-10.8-11.1-16.2-16.7c-0.3-0.3-0.5-0.6-0.8-0.8c-0.8-0.6-1-1.4-0.9-2.4c0-6.5,0-13,0-19.5c0-2.6,0.3-2-1.5-3.9
		c-2.9-3-5.8-6-8.7-8.9c-0.8-0.8-1.2-1.7-1.2-2.9c0-9.7,0-19.4,0-29.1c-0.1-26.3-0.2-52.6-0.3-79c0-6.3,0-12.6,0-18.9
		c0-0.6,0-1.3-0.1-2.1c-0.4,0.2-0.7,0.3-0.9,0.4c-1,1-2.1,1.9-3.1,2.9c-4.5,4.6-8.9,9.2-13.4,13.8c-0.3,0.3-0.5,0.6-0.8,0.8
		c-0.4,0.4-0.6,0.8-0.6,1.4c0,0.6,0,1.3,0,1.9c0.1,27.1,0.2,54.2,0.2,81.3c0,19.2-0.1,38.3-0.2,57.5c0,2.8-0.3,2.1,1.6,4.1
		c1,1,1.9,2.1,2.9,3.1c9,9.2,18,18.5,26.9,27.7c0.7,0.7,1.4,1.4,2.1,2c0.8-0.1,1.5-0.2,2.3-0.1c2.6,0.1,4.1,3,2.8,5.3
		c-0.8,1.5-2.5,2.1-4.1,1.7c-1.5-0.4-2.6-2.1-2.4-3.7c0-0.5,0.2-1,0.3-1.6c-0.4-0.5-0.8-1-1.3-1.4c-10.5-10.7-20.9-21.5-31.4-32.2
		c-0.1-0.1-0.2-0.2-0.3-0.3c-1-0.8-1.2-1.8-1.2-3.1c0-14.2-0.1-28.3-0.1-42.5c0-33.1,0.1-66.2,0.2-99.2c0-0.2,0-0.4,0-0.6
		c-0.1-0.9,0.2-1.6,0.9-2.2c2.6-2.6,5.1-5.2,7.7-7.8c3.5-3.6,7-7.2,10.4-10.8c1.8-2,1.6-1.4,1.6-4.1c0.1-9,0.1-18.1,0.1-27.1
		c0-0.5,0-0.9,0-1.4c0-0.7-0.2-1.3-0.7-1.7c-0.8-0.9-1.6-1.8-2.5-2.7c-9.3-9.6-18.6-19.1-27.9-28.7c-0.4-0.4-0.8-0.8-1.4-1.3
		c-0.1,0.5-0.3,0.7-0.3,1c0,1.2,0,2.3,0,3.5c0.2,50.4,0.2,100.7,0,151.1c-0.1,27.6-0.1,55.2-0.1,82.9c0,3.3-0.1,2.5,1.8,4.6
		c18.4,18.9,36.7,37.8,55.1,56.7c2,2,1.7,1.3,1.7,4.2c0,30.1,0,60.2,0,90.3c0,1,0,1.9,0,2.9c0.6,0.4,1.1,0.8,1.5,1.2
		c1.9,1.8,1.3,5-1,6c-1.5,0.7-3.3,0.1-4.2-1.2c-1-1.4-0.8-3.4,0.4-4.6c0.4-0.4,0.9-0.7,1.5-1.1c0-0.4,0.1-0.9,0.2-1.4
		c0-0.5,0-1,0-1.6c0-29.7,0-59.4,0-89.1c0-3.6,0.2-2.7-2-5.1c-11.6-11.9-23.1-23.8-34.7-35.7c-0.5-0.5-1-1.2-1.8-1.5
		c-0.1,0.3-0.3,0.5-0.3,0.7c-0.1,0.6-0.1,1.2-0.1,1.8c0,10.5,0,20.9,0,31.4c0,0.2,0,0.4,0,0.6c-0.2,1.3,0.4,2.2,1.2,3.1
		c6,6.1,12,12.3,18,18.5c0.4,0.4,0.7,0.8,1.1,1.1c0.6,0.5,0.8,1.1,0.8,1.9c0,0.5,0,1,0,1.6c0,11.1,0,22.2,0,33.3c0,0.8,0,1.6,0,2.3
		c0.5,0.4,1.1,0.8,1.5,1.2c1.4,1.4,1.5,3.5,0.2,4.9c-1.2,1.4-3.3,1.7-4.8,0.5c-1.7-1.3-1.8-3.9-0.2-5.5c0.4-0.4,0.9-0.7,1.4-1.1
		c0-0.5,0.1-1,0.1-1.5c0-11.5,0-23,0-34.5c0-1.2-0.4-2.1-1.2-2.9c-6-6.1-11.9-12.2-17.8-18.3c-2.2-2.3-1.9-1.5-1.9-4.7
		c0-11.1,0-22.2,0-33.3c0-0.5,0-1,0-1.6c0.1-1.3-0.4-2.2-1.3-3.1c-5.1-5.2-10.1-10.4-15.2-15.6c-0.3-0.3-0.6-0.7-0.9-1
		c-0.6-0.5-0.8-1.1-0.8-1.9c0-0.6,0-1.3,0-1.9c0-28.1,0-56.3,0-84.4c0-0.8,0.1-1.7-0.1-2.4c-0.4-0.3-0.7-0.1-0.9,0.1
		c-0.4,0.4-0.8,0.8-1.2,1.2c-5,5.1-10,10.3-15,15.4c-1.7,1.7-1.5,1.3-1.5,3.7c0,29.7,0,59.4,0,89.1c0,7,0,13.9,0,20.9
		c0,0.5,0,1,0,1.6c0,0.5,0.2,0.9,0.5,1.2c0.2,0.2,0.4,0.5,0.7,0.7c11.9,12.2,23.8,24.5,35.6,36.7c0.5,0.5,1,1,1.5,1.4
		c0.6-0.1,1.1-0.3,1.6-0.3c2-0.2,3.7,1.4,3.8,3.5c0.1,2.2-1.7,3.8-3.8,3.7c-2-0.1-3.4-2-3.2-4.1c0.1-0.4,0.2-0.9,0.3-1.5
		c-0.5-0.5-1-1.1-1.5-1.6c-6.3-6.5-12.7-13.1-19-19.6c-5.5-5.7-11.1-11.4-16.6-17.1c-0.3-0.3-0.5-0.6-0.8-0.8
		c-0.6-0.5-0.8-1.1-0.7-1.9c0-0.5,0-0.9,0-1.4c0-37,0-74,0-110.9c0-2.8-0.3-2.1,1.7-4.2c5-5.2,10-10.3,15-15.4c1-1,1.9-2.1,2.9-3.1
		c0.5-0.5,0.8-1.1,0.8-1.9c0-0.5,0-0.9,0-1.4c0-10.7-0.1-21.4-0.1-32.2c0-0.7,0.2-1.4-0.3-2.2c-0.4,0.3-0.7,0.5-1,0.7
		c-1.2,1.2-2.4,2.3-3.5,3.5c-9.2,9.5-18.4,18.9-27.6,28.4c-1.7,1.7-1.6,1.4-1.6,3.9c0,16.9,0,33.8,0,50.7c0,6.2,0,12.5,0,18.7
		c0,0.5,0,0.9,0,1.4c-0.1,1,0.2,1.7,1.1,2.3c1.2,0.7,1.6,1.9,1.5,3.3c-0.1,1.9-1.6,3.2-3.4,3.2c-1.9,0-3.3-1.4-3.4-3.2
		c-0.1-1.3,0.4-2.4,1.4-3.2c0.4-0.3,0.7-0.5,1.1-0.9c0-0.9,0.1-1.8,0.1-2.7c0-23.1,0-46.3,0-69.4c0-3.8-0.4-2.7,2.2-5.4
		c9.3-9.6,18.6-19.1,27.9-28.7c1.6-1.6,3.1-3.3,4.6-4.9c0.6-0.6,0.9-1.4,0.9-2.3c-0.1-1.6,0-3.2,0-4.9c0-24.2,0.1-48.4,0.1-72.5
		c0-18.1,0.1-36.3,0.1-54.4c0-0.8,0.1-1.5-0.2-2.4c-0.3,0.1-0.6,0.2-0.7,0.3c-0.4,0.3-0.7,0.7-1.1,1.1c-6.5,6.7-13,13.3-19.4,20
		c-0.2,0.2-0.4,0.5-0.7,0.7c-0.8,0.7-1.1,1.6-1,2.6c0,0.6,0,1.3,0,1.9c0,32.1,0,64.2,0,96.3c0,3.7,0.3,2.7-2.1,5.2
		c-2.7,2.8-5.4,5.6-8.2,8.4c-0.5,0.5-0.9,1-1.4,1.5c0.1,0.9,0.2,1.6,0.2,2.3c-0.1,2-1.5,3.3-3.5,3.3c-1.9,0-3.2-1.4-3.3-3.3
		c-0.1-2.3,1.4-3.8,3.6-3.7c0.6,0,1.1,0.1,1.7,0.2c0.4-0.4,0.8-0.8,1.2-1.2c2.9-3,5.8-6,8.7-8.9c1.1-1,1.4-2.2,1.4-3.6
		c0-15,0-30,0-45c0-16.7,0-33.4,0-50.1c0-0.8,0-1.5,0-2.2c-0.5-0.3-0.7-0.2-1,0c-0.3,0.3-0.6,0.6-0.9,1C89,73.8,81,82.1,72.9,90.4
		c-2,2.1-1.7,1.4-1.7,4.2c0.1,33.1,0.2,66.2,0.2,99.2c0,48-0.1,96.1-0.2,144.1c0,3.4-0.4,2.5,2,4.9c9.6,9.9,19.3,19.9,28.9,29.8
		c1.8,1.9,3.7,3.7,5.6,5.5c0.9,0.8,1.2,1.7,1.2,2.9c0,11.5,0.1,23,0.2,34.5c0,2.8-0.2,2.2,1.6,4.3c1.2,1.4,2.5,2.7,3.8,4.1
		c5.7,5.9,11.4,11.8,17.2,17.6c0.4,0.4,0.7,0.7,1.1,1.1c0.4,0.4,0.6,0.9,0.6,1.6c0,0.7,0,1.4,0,2.1c0,5.8,0,11.7,0,17.5
		c0,0.5,0,1,0,1.6c0.5,0.4,1.1,0.8,1.5,1.2c1.5,1.4,1.5,3.8,0.1,5.2c-1.4,1.4-3.7,1.4-5.1-0.2c-1.2-1.4-1.2-3.6,0.2-4.9
		c0.4-0.4,0.9-0.7,1.4-1.1c0-0.4,0.1-0.8,0.1-1.3c0-6.3,0-12.6,0-18.9c0-1.1-0.3-1.8-1.1-2.6c-6.1-6.2-12.2-12.5-18.2-18.7
		c-0.9-0.9-1.8-1.8-2.7-2.5c-0.5,0.2-0.5,0.5-0.5,0.8c0,0.4,0,0.8,0,1.2c-0.1,28-0.2,56-0.4,84c0,2.8,0.3,2.1-1.6,4.1
		c-2.6,2.7-5.3,5.4-7.9,8.1c-0.5,0.5-1,1-1.5,1.6c0.1,0.5,0.2,0.9,0.2,1.3c0.3,2.2-1.1,4.1-3.2,4.3c-2.1,0.2-3.8-1.5-3.8-3.7
		c0.1-2.1,1.8-3.7,4-3.5c0.4,0,0.9,0.2,1.3,0.3c0.3-0.3,0.7-0.6,1-0.9c2.9-2.9,5.7-5.9,8.6-8.8c0.8-0.8,1.1-1.6,1.1-2.7
		c0-6.2,0-12.3,0-18.5c-0.1-24.4-0.2-48.7-0.2-73.1c0-11.2,0.1-22.5,0.1-33.7c0-2.6,0.2-2-1.4-3.8c-1.2-1.4-2.5-2.7-3.8-4
		c-10.1-10.4-20.3-20.9-30.4-31.3c-2.2-2.2-1.8-1.4-1.8-4.4c-0.1-54.1-0.1-108.3-0.2-162.4c0-27.8,0.1-55.5,0.2-83.3
		c0-0.6,0-1.2,0-1.7c0.6-0.6,1.1-1.2,1.6-1.7c16.9-17.4,33.8-34.7,50.6-52.1c2.2-2.3,1.9-1.5,1.9-4.5c0-10.1,0-20.3,0-30.4
		c0-0.9,0.1-1.9-0.4-2.7C124.3,0,125.3,0,126.3,0z"/>
	<linearGradient id="SVGID_11_" gradientUnits="userSpaceOnUse" x1="29.8783" y1="65.5954" x2="27.8752" y2="244.8723">
		<stop  offset="0" style="stop-color:#B2E3F5"/>
		<stop  offset="0.5657" style="stop-color:#0015CD"/>
		<stop  offset="0.6765" style="stop-color:#0015CD"/>
	</linearGradient>
	<path class="st11" d="M54.6,1.2c0.1,1.4,0.2,2.8,0.2,4.2c0,15.5,0,31,0,46.4c0,4.4,0.6,3.2-2.8,6.5C37,72.8,22,87.2,7.1,101.7
		c-3.5,3.4-2.9,2-2.9,6.7c0,58.5,0,117,0,175.5c0,0.8-0.1,1.7,0,2.5c0.1,1.9-0.2,3.2-2.1,4.4c-2.7,1.7-2.6,5.4-0.4,7.5
		c2.2,2,5.7,1.9,7.7-0.4c1.8-2.1,1.7-5.1-0.4-7c-0.6-0.6-1.4-1-2.2-1.6c0-1.2-0.1-2.5-0.1-3.8c0-42.7,0-85.5,0-128.2
		c0-16.2,0-32.4,0-48.7c0-3.6-0.3-2.8,2.3-5.3C24.3,88.5,39.6,73.6,55,58.7c0.7-0.7,1.5-1.5,2.3-2.3c0-1,0-2.2,0-3.3
		c0-15.8,0-31.5,0-47.3c0-1.6,0.1-3.1,0.1-4.7C56.5,1.2,55.5,1.2,54.6,1.2z"/>
	<g id="Layer_4">
	</g>
</g>
<g id="Layer_3">
</g>
</svg>
