<?xml version="1.0" encoding="utf-8"?>
<!-- Generator: Adobe Illustrator 23.1.1, SVG Export Plug-In . SVG Version: 6.00 Build 0)  -->
<svg version="1.1" id="Layer_1" xmlns="http://www.w3.org/2000/svg" xmlns:xlink="http://www.w3.org/1999/xlink" x="0px" y="0px"
	 viewBox="0 0 612 792" style="enable-background:new 0 0 612 792;" xml:space="preserve">
<style type="text/css">
	.st0{fill:#FFFFFF;}
	.st1{fill:#A7A7A7;}
</style>
<g>
	<path class="st0" d="M450.4,220.5c-0.1,0.3-0.1-0.1,0.1-0.3c15.4-14.2,26.7-31.4,37-49.4c3.4-5.9,5-12.2,5-19.1
		c0-14.4-3.5-28-7.7-41.6c-5.7-18.4-16.8-32-34.2-40.2c-8.6-4.1-17.2-8.1-26-11.5c-20.8-8-39.1-1.8-50.9,17.1
		c-1.7,2.8-3.2,3.8-6.7,2.9c-33.4-7.7-66.9-8.4-100.5-0.3c-3.2,0.8-6.9,0.4-10.1-0.4c-11.2-3-22.2-7.2-33.6-9.5
		c-22.1-4.5-44.4-3.1-66.7-1.5c-11.4,0.8-18.2,6.4-22.3,16.2c-1.4,3.2-2.5,6.5-3.3,9.9c-5.3,22.5-5.1,45.3-2.6,68.1
		c2.1,19.2,13.5,31.9,32,37.6c6,1.8,12.3,2.8,18.6,3.4c6.4,0.6,12.8,0.1,18.4,0.1c4.3,12,8.4,23.1,12.6,34.7
		c-2.1,0.2-3.3,0.5-4.4,0.4c-14.3-0.9-28.5-2.7-42-8c-22.5-8.8-36.9-24.8-41.3-48.7c-1.8-9.8-1.7-19.9-2.2-29.8
		c-0.4-7.5-2.5-9.2-9.7-7c-0.6,0.2-1.1,0.2-2.2,0.4c0.7-1.1,1-1.6,1.3-2.2c3.5-6,3.1-12.5-1.2-16.5c-4.1-3.8-10.4-4.1-15.8,1.1
		c-4.8,4.6-9.1,10.2-12.3,16.1c-6.8,12.4-7.5,26.2-6.2,39.9c3.3,34.1,7.5,68.2,10.4,102.3c1.7,19.6,10.2,35.2,23.5,48.8
		c18.1,18.5,36.5,36.5,54.4,55.1c7.7,8.1,16.6,12.9,27.6,14.6c20.2,3.1,40.2,1.1,60.2-1.8c7.8-1.1,15.6-2.6,23.9-4.1
		c3.1,26,7,51.3-3.2,74.9c14.7-0.1,29.8-1.4,44.5,0c34.8,3.3,60.5,20.5,73.6,53.7c6.9,17.5,12.9,35.3,19.2,53
		c3.3,9.3,6.6,18.7,9.8,28c-1.7-1.6-2.6-3.5-3.4-5.5c-8.9-23.3-18-46.6-26.7-70c-11.2-29.9-32.1-48.4-63.4-54.8
		c-16.8-3.5-33.8-3.5-50.7-0.9c-10.2,1.6-18.8,7.2-24.9,15.7c-3.3,4.7-5.8,10.1-7.9,15.5c-7.5,20.1-10.7,41.2-13.2,62.4
		c-0.8,7.1-1.5,14.3-2.3,22.2c-2.5-1.9-4.1-3.3-5.8-4.5c-13.1-8.9-26.1-17.9-39.4-26.3c-2.7-1.7-6.8-1.2-10.2-1.6
		c0,3.5-0.6,7.2,0.3,10.5c1.1,4.4,3.3,8.5,5.1,12.8c-1.7,0.6-3,0.9-4.2,1.5c-4.9,2.6-8,10.4-5.4,13.5c16.4,18.9,32.7,37.8,49.1,56.6
		c6.7,7.7,14.4,14.3,24,18.5c7.7,3.4,15.5,4.3,23.9,2.8c6.9-1.3,10.1-6.1,14-11c7.3-9.1,16.5-10.2,25.9-3.2
		c6.9,5.2,12.9,11.4,15.8,19.6c8.8,25.1,26.6,40.1,51.5,47.4c25.2,7.4,50.7,6.2,76.3,2.6c8.6-1.2,16.2-4.2,23.2-9.4
		c8-6,16.2-11.8,24.8-16.8c20.6-11.9,34.1-30,45.2-50.2c22.5-41.1,30.3-85.7,30-132c-0.3-43.4-8-85.8-20-127.4
		c-14.8-51.3-36.4-99.4-69.8-141.5C470.5,241.8,460.3,231.5,450.4,220.5z"/>
	<path class="st1" d="M422.3,211c9.8,11,20,21.3,29,32.6c33.4,42.1,55,90.2,69.8,141.5c12,41.6,19.7,84,20,127.4
		c0.3,46.2-7.5,90.9-30,132c-11.1,20.2-24.7,38.3-45.2,50.2c-8.6,5-16.8,10.8-24.8,16.8c-7,5.3-14.6,8.2-23.2,9.4
		c-25.6,3.6-51.1,4.8-76.3-2.6c-24.9-7.3-42.7-22.3-51.5-47.4c-2.9-8.2-8.9-14.5-15.8-19.6c-9.4-7-18.5-6-25.9,3.2
		c-3.9,4.8-7.2,9.7-14,11c-8.4,1.6-16.2,0.6-23.9-2.8c-9.5-4.2-17.2-10.7-24-18.5c-16.4-18.8-32.8-37.7-49.1-56.6
		c-2.6-3,0.5-10.9,5.4-13.5c1.1-0.6,2.5-0.9,4.2-1.5c-1.8-4.3-4-8.4-5.1-12.8c-0.8-3.3-0.2-7-0.3-10.5c3.4,0.5,7.5-0.1,10.2,1.6
		c13.4,8.4,26.3,17.5,39.4,26.3c1.8,1.2,3.4,2.6,5.8,4.5c0.8-7.9,1.5-15.1,2.3-22.2c2.5-21.2,5.6-42.3,13.2-62.4
		c2-5.4,4.5-10.8,7.9-15.5c6-8.5,14.7-14.1,24.9-15.7c16.9-2.6,33.9-2.6,50.7,0.9c31.3,6.5,52.2,25,63.4,54.8
		c8.7,23.4,17.8,46.6,26.7,70c0.8,2,1.6,3.9,3.4,5.5c-3.3-9.3-6.5-18.7-9.8-28c-6.3-17.7-12.3-35.5-19.2-53
		c-13.2-33.3-38.8-50.4-73.6-53.7c-14.8-1.4-29.8-0.1-44.5,0c10.2-23.6,6.3-48.9,3.2-74.9c-8.3,1.4-16.1,2.9-23.9,4.1
		c-20,2.9-40,4.9-60.2,1.8c-11-1.7-19.9-6.5-27.6-14.6c-17.9-18.6-36.3-36.7-54.4-55.1c-13.3-13.6-21.8-29.3-23.5-48.8
		c-2.9-34.2-7.1-68.2-10.4-102.3c-1.3-13.7-0.6-27.5,6.2-39.9c3.2-5.9,7.5-11.4,12.3-16.1c5.4-5.1,11.7-4.9,15.8-1.1
		c4.3,4,4.8,10.5,1.2,16.5c-0.3,0.6-0.7,1.1-1.3,2.2c1.1-0.2,1.7-0.2,2.2-0.4c7.2-2.1,9.3-0.5,9.7,7c0.5,10,0.5,20.1,2.2,29.8
		c4.3,23.9,18.8,39.9,41.3,48.7c13.5,5.3,27.7,7.1,42,8c1.1,0.1,2.3-0.2,4.4-0.4c-4.2-11.6-8.2-22.7-12.6-34.7
		c-5.6,0-12.1,0.4-18.4-0.1c-6.3-0.6-12.6-1.5-18.6-3.4c-18.5-5.7-29.8-18.3-32-37.6c-2.5-22.7-2.7-45.6,2.6-68.1
		c0.8-3.4,1.9-6.7,3.3-9.9c4.1-9.8,10.9-15.4,22.3-16.2c22.3-1.6,44.6-3,66.7,1.5c11.4,2.3,22.3,6.5,33.6,9.5
		c3.2,0.9,6.9,1.2,10.1,0.4c33.5-8,67-7.4,100.5,0.3c3.5,0.8,5-0.1,6.7-2.9c11.8-18.9,30.1-25.1,50.9-17.1c8.8,3.4,17.4,7.5,26,11.5
		c17.4,8.3,28.5,21.8,34.2,40.2c4.2,13.6,7.7,27.2,7.7,41.6c0,6.9-1.6,13.1-5,19.1c-10.3,18-21.6,35.2-37,49.4
		C422.2,210.9,422.2,211.3,422.3,211z M279,176.6c-9.3,0.1-15.8,1.8-21.5,6c-6.8,5-9.9,11.8-8.1,20.1c2.2,10.1,7.2,18.6,15.5,24.9
		c7.7,5.8,15.8,5.6,23.4-0.3c6.6-5.1,11-12,13.8-19.8c4.4-12.5-0.1-22.9-12.4-28C285.6,177.8,281.1,177.2,279,176.6z M327.6,177.7
		c6.5,0,13.4-5.8,13.4-11.1c0-3.7-3.1-6.2-7.5-6.2c-6.6,0.1-13.3,5.7-13.3,11.2C320.2,175.5,322.9,177.7,327.6,177.7z M226.9,177.8
		c1-0.7,3.9-1.7,4.9-3.7c0.9-1.8,0.4-5-0.7-6.9c-2.6-4.6-7-7-12.4-6.9c-5.9,0.2-8.6,4.9-5.6,10C215.8,175,219.9,177.4,226.9,177.8z"
		/>
</g>
</svg>
