<?xml version="1.0" encoding="utf-8"?>
<!-- Generator: Adobe Illustrator 23.1.1, SVG Export Plug-In . SVG Version: 6.00 Build 0)  -->
<svg version="1.1" id="Layer_1" xmlns="http://www.w3.org/2000/svg" xmlns:xlink="http://www.w3.org/1999/xlink" x="0px" y="0px"
	 viewBox="0 0 6806.2 5197.2" style="enable-background:new 0 0 6806.2 5197.2;" xml:space="preserve">
<style type="text/css">
	.st0{fill:#474747;}
</style>
<g>
	<path class="st0" d="M2654.7,578.3c6.3-100.1,64.3-172.6,137-229c112.8-87.6,230.8-168.8,350.6-246.7
		c60.2-39.1,130.1-26.5,195.9-5.5c103.6,33.1,187.3,97,261.2,174.7c93.3,98,163.4,211.4,209.5,338.2
		c60.6,166.9,24.2,324.5-56.7,475.4c-53.9,100.4-123.9,188.9-205.6,268.2c-8.5,8.3-16.4,17.2-27.6,29c26.8,11.6,50.7,21.9,74.5,32.3
		c393.7,172.5,770.5,374.8,1103.2,649.6c384.7,317.8,710,687.5,948.5,1128.5c190.6,352.4,239.7,724.9,141.8,1113.8
		c-18.2,72.4-54.3,140.9-87.5,208.6c-46.7,95.4-130.6,141.7-232.9,145.6c-94.3,3.6-189.2-3.5-283.7-9.4
		c-21.8-1.4-35.3,2.3-50.5,16.8c-49.6,47.3-100.7,93-151,139.6c-31.9,29.5-68.4,47.1-112.3,52c-146,16.4-292.1,19.1-449.7,13.5
		c12.1-63.2,23.2-121,34.6-180.2c-39.1,0-79.6-6-117.7,1.1c-138.6,25.6-272.9,5.6-406.7-28.7c-10.5-2.7-20.7-6.4-31.3-8.4
		c-38.1-7.2-70.3-18.7-80.7-63.9c-10.7-46.4-7.2-86.6,23-125.4c137.3-176.3,252.4-365.8,340.5-571.6c58.2-136.2,70-277.9,46-421.1
		c-30-178.7-69.3-355.9-104.8-533.7c-2.2-11.1-6.8-21.7-15.3-31.2c15.1,73.8,33.2,147.1,44.6,221.4
		c22.2,144.8,43.9,289.9,59.8,435.5c14.6,134.1-23.3,259.8-79.1,380.3c-84.2,181.7-187.6,352.2-307,512.9
		c-41.2,55.5-43.4,117-4.9,168.2c75.6,100.6,66.3,212.7,57.8,325.1c-6.1,80.8-10.8,86.3-90.9,73.9c-73.2-11.2-132.2,4.8-182.3,56.6
		c-36.1,37.3-76,45.5-122.3,21.6c-3.1-1.6-7-1.9-10.3-3.2c-95.2-37.4-190-53.8-285.2,1.2c-13.1,7.5-29.6,9.7-44.9,12.5
		c-68.9,12.6-96-8.1-102.9-77.6c-6-60.3-5.9-61.3-67.3-68.6c-101.5-12.1-203-24.2-304.7-33.4c-33.6-3.1-42.4-14.8-37.2-47.4
		c12.7-80.2,50.4-143.2,122.8-180.8c105.6-54.8,213.3-105.5,318.9-160.2c42.5-22,82.7-49,122.4-75.8c42.1-28.4,56.5-71.9,51.1-120
		c-16.6-148.4-55.1-291.8-131.2-420.2c-80.7-136.3-172.5-266.2-259.5-398.8c-2-3-4.6-5.6-6.9-8.4c-79.1-95.4-123.2-103.1-214.9-18.7
		c-66.7,61.4-131.4,128.9-180.7,204.4c-148,226.5-286.2,459.3-432.2,687.1c-45,70.2-40.4,128.8,9.9,190.2
		c26.6,32.6,53.1,65.6,76.2,100.7c47.5,71.8,29.3,147.6,7.7,222.4c-1.7,5.7-14.5,11.4-22.3,11.6c-72.1,2.1-144.3,6.2-216.2,3
		c-37.6-1.7-78.3-9.6-111.1-27c-124.6-65.7-254.4-54.5-387.2-40.8c-143.3,14.8-287.4,22.6-431.4,29c-88.7,4-177.8,0.3-266.7-1.6
		c-14.3-0.3-28.5-8.9-42.7-13.6c5.3-14,8.2-29.6,16.4-41.7c48.4-71.6,94-145.6,148.8-212.1c27.5-33.4,68.9-63.6,109.8-75.9
		c81.1-24.4,166.1-36.6,249.9-51.4c55.6-9.8,111.9-15.6,167.9-22.7c72.7-9.2,122.3-49,135.5-120.2c17.1-91.7,30.5-184.7,36.7-277.7
		c5.3-80-13.6-162.9-0.3-240.8c16.4-96,53.3-188.7,84.4-281.9c47.1-141.1,110-278.5,141.9-422.8c35.1-158.8,43.8-323.6,61.8-486
		c7.7-69.3,9.5-139.1,14.8-208.7c1.5-20-3.4-32.7-23.3-42.6c-210.2-104-324.4-275.2-352-506.5c-8.1-67.9-16.8-135.7-26-209.7
		c-22.7,3.9-46.9,4.5-68.4,12.3c-67.5,24.8-133.9,52.4-200.8,78.8c-21.2,8.3-42.1,18.3-64.1,23.2c-32,7.1-59-5.2-80.4-29.7
		c-3.9-4.5-8.2-9.1-10.8-14.4c-83.1-171.2-178.9-336-187.5-535.7c-9.1-214,4.1-425.4,38-636c16.8-104.2,79.1-153.6,184.6-154.8
		c118-1.4,225.2,39.3,326.8,91.6c114.2,58.8,223.7,126.6,334.2,192.3c19.7,11.7,34.4,11.8,56.2,7c118.3-25.9,236.5-55.5,356.4-70.7
		c183.6-23.3,368.5-35.9,552.8-53.1C2642.8,582,2646.2,580.5,2654.7,578.3z M2366.1,1856.2c2.4-101.4-21.5-166-74.5-219.3
		c-149.6-150.6-436.8-110.9-540.1,75c-34.1,61.4-46.6,126.5-25,194.7c39.7,125.4,110.9,229.2,219.9,304
		c115.6,79.2,224,60.7,308.7-51.5C2328.4,2061.8,2360,1949.7,2366.1,1856.2z M1657.2,1653.3c56,0.4,86.3-34.3,69-75.2
		c-19.9-47.3-92-77.5-139.8-58.7c-37.2,14.7-48.7,47.5-26.5,80.9C1583.6,1635.9,1618.6,1651.7,1657.2,1653.3z M2640.8,1437.7
		c0.8-29-20.5-51.8-50.8-54.2c-50.6-4.1-111.8,47.1-116.7,97.3c-3.2,33,14.8,55.3,47.8,59.3
		C2572.3,1546.4,2639.3,1489.1,2640.8,1437.7z"/>
</g>
</svg>
