<?xml version="1.0" encoding="utf-8"?>
<!-- Generator: Adobe Illustrator 23.1.1, SVG Export Plug-In . SVG Version: 6.00 Build 0)  -->
<svg version="1.1" id="Layer_1" xmlns="http://www.w3.org/2000/svg" xmlns:xlink="http://www.w3.org/1999/xlink" x="0px" y="0px"
	 viewBox="0 0 612 792" style="enable-background:new 0 0 612 792;" xml:space="preserve">
<style type="text/css">
	.st0{fill:#474747;}
</style>
<g>
	<path class="st0" d="M236.3,154.4c0.7-11.5,7.4-19.9,15.8-26.4c13-10.1,26.6-19.4,40.3-28.4c6.9-4.5,15-3,22.5-0.6
		c11.9,3.8,21.6,11.2,30.1,20.1c10.7,11.3,18.8,24.3,24.1,38.9c7,19.2,2.8,37.3-6.5,54.7c-6.2,11.6-14.3,21.7-23.7,30.9
		c-1,1-1.9,2-3.2,3.3c3.1,1.3,5.8,2.5,8.6,3.7c45.3,19.9,88.7,43.1,126.9,74.8c44.3,36.6,81.7,79.1,109.1,129.9
		c21.9,40.6,27.6,83.4,16.3,128.2c-2.1,8.3-6.3,16.2-10.1,24c-5.4,11-15,16.3-26.8,16.8c-10.9,0.4-21.8-0.4-32.6-1.1
		c-2.5-0.2-4.1,0.3-5.8,1.9c-5.7,5.4-11.6,10.7-17.4,16.1c-3.7,3.4-7.9,5.4-12.9,6c-16.8,1.9-33.6,2.2-51.7,1.5
		c1.4-7.3,2.7-13.9,4-20.7c-4.5,0-9.2-0.7-13.5,0.1c-15.9,2.9-31.4,0.6-46.8-3.3c-1.2-0.3-2.4-0.7-3.6-1c-4.4-0.8-8.1-2.2-9.3-7.3
		c-1.2-5.3-0.8-10,2.7-14.4c15.8-20.3,29-42.1,39.2-65.8c6.7-15.7,8.1-32,5.3-48.5c-3.5-20.6-8-41-12.1-61.4
		c-0.3-1.3-0.8-2.5-1.8-3.6c1.7,8.5,3.8,16.9,5.1,25.5c2.6,16.7,5.1,33.4,6.9,50.1c1.7,15.4-2.7,29.9-9.1,43.8
		c-9.7,20.9-21.6,40.5-35.3,59c-4.7,6.4-5,13.5-0.6,19.4c8.7,11.6,7.6,24.5,6.7,37.4c-0.7,9.3-1.2,9.9-10.5,8.5
		c-8.4-1.3-15.2,0.6-21,6.5c-4.2,4.3-8.7,5.2-14.1,2.5c-0.4-0.2-0.8-0.2-1.2-0.4c-11-4.3-21.9-6.2-32.8,0.1
		c-1.5,0.9-3.4,1.1-5.2,1.4c-7.9,1.4-11-0.9-11.8-8.9c-0.7-6.9-0.7-7-7.7-7.9c-11.7-1.4-23.4-2.8-35.1-3.8c-3.9-0.4-4.9-1.7-4.3-5.5
		c1.5-9.2,5.8-16.5,14.1-20.8c12.1-6.3,24.5-12.1,36.7-18.4c4.9-2.5,9.5-5.6,14.1-8.7c4.8-3.3,6.5-8.3,5.9-13.8
		c-1.9-17.1-6.3-33.6-15.1-48.4c-9.3-15.7-19.8-30.6-29.9-45.9c-0.2-0.3-0.5-0.6-0.8-1c-9.1-11-14.2-11.9-24.7-2.1
		c-7.7,7.1-15.1,14.8-20.8,23.5c-17,26.1-32.9,52.8-49.7,79.1c-5.2,8.1-4.6,14.8,1.1,21.9c3.1,3.7,6.1,7.5,8.8,11.6
		c5.5,8.3,3.4,17,0.9,25.6c-0.2,0.7-1.7,1.3-2.6,1.3c-8.3,0.2-16.6,0.7-24.9,0.3c-4.3-0.2-9-1.1-12.8-3.1
		c-14.3-7.6-29.3-6.3-44.6-4.7c-16.5,1.7-33.1,2.6-49.6,3.3c-10.2,0.5-20.5,0-30.7-0.2c-1.6,0-3.3-1-4.9-1.6
		c0.6-1.6,0.9-3.4,1.9-4.8c5.6-8.2,10.8-16.8,17.1-24.4c3.2-3.8,7.9-7.3,12.6-8.7c9.3-2.8,19.1-4.2,28.8-5.9
		c6.4-1.1,12.9-1.8,19.3-2.6c8.4-1.1,14.1-5.6,15.6-13.8c2-10.6,3.5-21.2,4.2-32c0.6-9.2-1.6-18.7,0-27.7c1.9-11,6.1-21.7,9.7-32.4
		c5.4-16.2,12.7-32,16.3-48.7c4-18.3,5-37.2,7.1-55.9c0.9-8,1.1-16,1.7-24c0.2-2.3-0.4-3.8-2.7-4.9c-24.2-12-37.3-31.7-40.5-58.3
		c-0.9-7.8-1.9-15.6-3-24.1c-2.6,0.4-5.4,0.5-7.9,1.4c-7.8,2.9-15.4,6-23.1,9.1c-2.4,1-4.8,2.1-7.4,2.7c-3.7,0.8-6.8-0.6-9.3-3.4
		c-0.5-0.5-0.9-1.1-1.2-1.7c-9.6-19.7-20.6-38.7-21.6-61.6c-1.1-24.6,0.5-48.9,4.4-73.2c1.9-12,9.1-17.7,21.2-17.8
		c13.6-0.2,25.9,4.5,37.6,10.5c13.1,6.8,25.7,14.6,38.5,22.1c2.3,1.3,4,1.4,6.5,0.8c13.6-3,27.2-6.4,41-8.1
		c21.1-2.7,42.4-4.1,63.6-6.1C234.9,154.9,235.3,154.7,236.3,154.4z M203.1,301.5c0.3-11.7-2.5-19.1-8.6-25.2
		c-17.2-17.3-50.3-12.8-62.2,8.6c-3.9,7.1-5.4,14.6-2.9,22.4c4.6,14.4,12.8,26.4,25.3,35c13.3,9.1,25.8,7,35.5-5.9
		C198.8,325.2,202.4,312.3,203.1,301.5z M121.5,278.2c6.4,0,9.9-3.9,7.9-8.7c-2.3-5.4-10.6-8.9-16.1-6.7c-4.3,1.7-5.6,5.5-3,9.3
		C113,276.1,117.1,278,121.5,278.2z M234.7,253.3c0.1-3.3-2.4-6-5.8-6.2c-5.8-0.5-12.9,5.4-13.4,11.2c-0.4,3.8,1.7,6.4,5.5,6.8
		C226.8,265.9,234.5,259.3,234.7,253.3z"/>
</g>
</svg>
