<?xml version="1.0" encoding="utf-8"?>
<!-- Generator: Adobe Illustrator 23.1.1, SVG Export Plug-In . SVG Version: 6.00 Build 0)  -->
<svg version="1.1" id="Layer_1" xmlns="http://www.w3.org/2000/svg" xmlns:xlink="http://www.w3.org/1999/xlink" x="0px" y="0px"
	 viewBox="0 0 612 792" style="enable-background:new 0 0 612 792;" xml:space="preserve">
<style type="text/css">
	.st0{fill:#474747;}
</style>
<g>
	<path class="st0" d="M243.7,51.9c0.9-13.9,8.9-23.9,19-31.7C278.3,8,294.7-3.2,311.2-14c8.3-5.4,18-3.7,27.1-0.8
		c14.3,4.6,25.9,13.4,36.2,24.2c12.9,13.6,22.6,29.3,29,46.8c8.4,23.1,3.4,44.9-7.9,65.8c-7.5,13.9-17.2,26.2-28.5,37.1
		c-1.2,1.1-2.3,2.4-3.8,4c3.7,1.6,7,3,10.3,4.5c54.5,23.9,106.7,51.9,152.8,90c53.3,44,98.3,95.2,131.3,156.3
		c26.4,48.8,33.2,100.4,19.6,154.2c-2.5,10-7.5,19.5-12.1,28.9c-6.5,13.2-18.1,19.6-32.3,20.2c-13.1,0.5-26.2-0.5-39.3-1.3
		c-3-0.2-4.9,0.3-7,2.3c-6.9,6.6-13.9,12.9-20.9,19.3c-4.4,4.1-9.5,6.5-15.5,7.2c-20.2,2.3-40.4,2.6-62.3,1.9
		c1.7-8.8,3.2-16.8,4.8-24.9c-5.4,0-11-0.8-16.3,0.1c-19.2,3.5-37.8,0.8-56.3-4c-1.5-0.4-2.9-0.9-4.3-1.2c-5.3-1-9.7-2.6-11.2-8.8
		c-1.5-6.4-1-12,3.2-17.4c19-24.4,35-50.6,47.1-79.2c8.1-18.9,9.7-38.5,6.4-58.3c-4.2-24.7-9.6-49.3-14.5-73.9
		c-0.3-1.5-0.9-3-2.1-4.3c2.1,10.2,4.6,20.4,6.2,30.7c3.1,20.1,6.1,40.1,8.3,60.3c2,18.6-3.2,36-11,52.7c-11.7,25.2-26,48.8-42.5,71
		c-5.7,7.7-6,16.2-0.7,23.3c10.5,13.9,9.2,29.5,8,45c-0.8,11.2-1.5,11.9-12.6,10.2c-10.1-1.6-18.3,0.7-25.2,7.8
		c-5,5.2-10.5,6.3-16.9,3c-0.4-0.2-1-0.3-1.4-0.4c-13.2-5.2-26.3-7.4-39.5,0.2c-1.8,1-4.1,1.3-6.2,1.7c-9.5,1.7-13.3-1.1-14.2-10.7
		c-0.8-8.3-0.8-8.5-9.3-9.5c-14-1.7-28.1-3.3-42.2-4.6c-4.7-0.4-5.9-2-5.2-6.6c1.8-11.1,7-19.8,17-25c14.6-7.6,29.5-14.6,44.2-22.2
		c5.9-3.1,11.4-6.8,17-10.5c5.8-3.9,7.8-10,7.1-16.6c-2.3-20.5-7.6-40.4-18.2-58.2c-11.2-18.9-23.9-36.9-35.9-55.2
		c-0.3-0.4-0.6-0.8-0.9-1.2c-11-13.2-17.1-14.3-29.8-2.6c-9.2,8.5-18.2,17.9-25,28.3c-20.5,31.4-39.6,63.6-59.9,95.1
		c-6.2,9.7-5.6,17.8,1.4,26.3c3.7,4.5,7.3,9.1,10.6,13.9c6.6,9.9,4.1,20.4,1.1,30.8c-0.2,0.8-2,1.6-3.1,1.6c-10,0.3-20,0.9-29.9,0.4
		c-5.2-0.2-10.8-1.3-15.4-3.7c-17.3-9.1-35.2-7.5-53.6-5.6c-19.8,2-39.8,3.1-59.7,4c-12.3,0.5-24.6,0-36.9-0.2c-2,0-3.9-1.2-5.9-1.9
		c0.7-1.9,1.1-4.1,2.3-5.8c6.7-9.9,13-20.2,20.6-29.4c3.8-4.6,9.5-8.8,15.2-10.5c11.2-3.4,23-5.1,34.6-7.1
		c7.7-1.4,15.5-2.2,23.2-3.1c10.1-1.3,16.9-6.8,18.8-16.6c2.4-12.7,4.2-25.6,5.1-38.4c0.7-11.1-1.9-22.6,0-33.3
		c2.3-13.3,7.4-26.1,11.7-39c6.5-19.5,15.2-38.6,19.6-58.5c4.9-22,6.1-44.8,8.6-67.3c1.1-9.6,1.3-19.3,2-28.9
		c0.2-2.8-0.5-4.5-3.2-5.9c-29.1-14.4-44.9-38.1-48.7-70.1c-1.1-9.4-2.3-18.8-3.6-29c-3.1,0.5-6.5,0.6-9.5,1.7
		c-9.3,3.4-18.5,7.3-27.8,10.9c-2.9,1.2-5.8,2.5-8.9,3.2c-4.4,1-8.2-0.7-11.1-4.1c-0.5-0.6-1.1-1.3-1.5-2
		c-11.5-23.7-24.8-46.5-26-74.2c-1.3-29.6,0.6-58.9,5.3-88.1c2.3-14.4,10.9-21.3,25.6-21.4c16.3-0.2,31.2,5.4,45.3,12.7
		c15.8,8.1,31,17.5,46.3,26.6c2.7,1.6,4.8,1.6,7.8,1c16.4-3.6,32.8-7.7,49.4-9.8c25.4-3.2,51-5,76.5-7.4
		C242.1,52.4,242.6,52.2,243.7,51.9z M203.8,228.8c0.3-14-3-23-10.3-30.4c-20.7-20.9-60.5-15.4-74.8,10.4c-4.7,8.5-6.4,17.5-3.5,27
		c5.5,17.4,15.4,31.7,30.5,42.1c16,11,31,8.4,42.7-7.1C198.6,257.3,202.9,241.8,203.8,228.8z M105.6,200.7
		c7.8,0.1,11.9-4.7,9.6-10.4c-2.8-6.6-12.7-10.7-19.4-8.1c-5.2,2-6.7,6.6-3.7,11.2C95.4,198.3,100.3,200.5,105.6,200.7z
		 M241.8,170.9c0.1-4-2.8-7.2-7-7.5c-7-0.6-15.5,6.5-16.2,13.5c-0.4,4.6,2,7.7,6.6,8.2C232.3,185.9,241.6,178,241.8,170.9z"/>
</g>
</svg>
